%TF.GenerationSoftware,KiCad,Pcbnew,(6.0.2)*%
%TF.CreationDate,2022-04-19T16:18:31-05:00*%
%TF.ProjectId,Tlapixki-HelloWorld,546c6170-6978-46b6-992d-48656c6c6f57,rev?*%
%TF.SameCoordinates,Original*%
%TF.FileFunction,Copper,L1,Top*%
%TF.FilePolarity,Positive*%
%FSLAX46Y46*%
G04 Gerber Fmt 4.6, Leading zero omitted, Abs format (unit mm)*
G04 Created by KiCad (PCBNEW (6.0.2)) date 2022-04-19 16:18:31*
%MOMM*%
%LPD*%
G01*
G04 APERTURE LIST*
G04 Aperture macros list*
%AMRoundRect*
0 Rectangle with rounded corners*
0 $1 Rounding radius*
0 $2 $3 $4 $5 $6 $7 $8 $9 X,Y pos of 4 corners*
0 Add a 4 corners polygon primitive as box body*
4,1,4,$2,$3,$4,$5,$6,$7,$8,$9,$2,$3,0*
0 Add four circle primitives for the rounded corners*
1,1,$1+$1,$2,$3*
1,1,$1+$1,$4,$5*
1,1,$1+$1,$6,$7*
1,1,$1+$1,$8,$9*
0 Add four rect primitives between the rounded corners*
20,1,$1+$1,$2,$3,$4,$5,0*
20,1,$1+$1,$4,$5,$6,$7,0*
20,1,$1+$1,$6,$7,$8,$9,0*
20,1,$1+$1,$8,$9,$2,$3,0*%
G04 Aperture macros list end*
%TA.AperFunction,SMDPad,CuDef*%
%ADD10R,1.300000X1.550000*%
%TD*%
%TA.AperFunction,SMDPad,CuDef*%
%ADD11RoundRect,0.225000X0.225000X0.250000X-0.225000X0.250000X-0.225000X-0.250000X0.225000X-0.250000X0*%
%TD*%
%TA.AperFunction,SMDPad,CuDef*%
%ADD12RoundRect,0.200000X-0.275000X0.200000X-0.275000X-0.200000X0.275000X-0.200000X0.275000X0.200000X0*%
%TD*%
%TA.AperFunction,SMDPad,CuDef*%
%ADD13RoundRect,0.200000X0.200000X0.275000X-0.200000X0.275000X-0.200000X-0.275000X0.200000X-0.275000X0*%
%TD*%
%TA.AperFunction,SMDPad,CuDef*%
%ADD14RoundRect,0.062500X0.350000X0.062500X-0.350000X0.062500X-0.350000X-0.062500X0.350000X-0.062500X0*%
%TD*%
%TA.AperFunction,SMDPad,CuDef*%
%ADD15RoundRect,0.062500X0.062500X0.350000X-0.062500X0.350000X-0.062500X-0.350000X0.062500X-0.350000X0*%
%TD*%
%TA.AperFunction,SMDPad,CuDef*%
%ADD16R,2.600000X2.600000*%
%TD*%
%TA.AperFunction,SMDPad,CuDef*%
%ADD17RoundRect,0.200000X-0.200000X-0.275000X0.200000X-0.275000X0.200000X0.275000X-0.200000X0.275000X0*%
%TD*%
%TA.AperFunction,SMDPad,CuDef*%
%ADD18RoundRect,0.150000X0.587500X0.150000X-0.587500X0.150000X-0.587500X-0.150000X0.587500X-0.150000X0*%
%TD*%
%TA.AperFunction,SMDPad,CuDef*%
%ADD19R,1.500000X2.000000*%
%TD*%
%TA.AperFunction,SMDPad,CuDef*%
%ADD20R,3.800000X2.000000*%
%TD*%
%TA.AperFunction,ComponentPad*%
%ADD21R,1.000000X1.000000*%
%TD*%
%TA.AperFunction,ComponentPad*%
%ADD22O,1.000000X1.000000*%
%TD*%
%TA.AperFunction,SMDPad,CuDef*%
%ADD23RoundRect,0.200000X0.275000X-0.200000X0.275000X0.200000X-0.275000X0.200000X-0.275000X-0.200000X0*%
%TD*%
%TA.AperFunction,SMDPad,CuDef*%
%ADD24RoundRect,0.218750X0.218750X0.256250X-0.218750X0.256250X-0.218750X-0.256250X0.218750X-0.256250X0*%
%TD*%
%TA.AperFunction,SMDPad,CuDef*%
%ADD25RoundRect,0.225000X-0.250000X0.225000X-0.250000X-0.225000X0.250000X-0.225000X0.250000X0.225000X0*%
%TD*%
%TA.AperFunction,SMDPad,CuDef*%
%ADD26R,1.350000X0.400000*%
%TD*%
%TA.AperFunction,SMDPad,CuDef*%
%ADD27R,1.550000X1.500000*%
%TD*%
%TA.AperFunction,SMDPad,CuDef*%
%ADD28R,1.550000X1.200000*%
%TD*%
%TA.AperFunction,ComponentPad*%
%ADD29O,1.550000X0.890000*%
%TD*%
%TA.AperFunction,ComponentPad*%
%ADD30O,0.950000X1.250000*%
%TD*%
%TA.AperFunction,SMDPad,CuDef*%
%ADD31RoundRect,0.218750X-0.256250X0.218750X-0.256250X-0.218750X0.256250X-0.218750X0.256250X0.218750X0*%
%TD*%
%TA.AperFunction,SMDPad,CuDef*%
%ADD32R,0.900000X2.000000*%
%TD*%
%TA.AperFunction,SMDPad,CuDef*%
%ADD33R,2.000000X0.900000*%
%TD*%
%TA.AperFunction,SMDPad,CuDef*%
%ADD34R,5.000000X5.000000*%
%TD*%
%TA.AperFunction,ViaPad*%
%ADD35C,0.800000*%
%TD*%
%TA.AperFunction,Conductor*%
%ADD36C,0.500000*%
%TD*%
%TA.AperFunction,Conductor*%
%ADD37C,0.300000*%
%TD*%
%TA.AperFunction,Conductor*%
%ADD38C,0.250000*%
%TD*%
%TA.AperFunction,Conductor*%
%ADD39C,0.200000*%
%TD*%
G04 APERTURE END LIST*
D10*
%TO.P,S1,1,A*%
%TO.N,GND*%
X96500000Y-105525000D03*
X96500000Y-113475000D03*
%TO.P,S1,2,B*%
%TO.N,GPIO18*%
X101000000Y-105525000D03*
X101000000Y-113475000D03*
%TD*%
D11*
%TO.P,C3,1*%
%TO.N,+3V3*%
X108775000Y-112500000D03*
%TO.P,C3,2*%
%TO.N,GND*%
X107225000Y-112500000D03*
%TD*%
D12*
%TO.P,R9,1*%
%TO.N,Net-(D2-Pad1)*%
X93100000Y-108775000D03*
%TO.P,R9,2*%
%TO.N,GND*%
X93100000Y-110425000D03*
%TD*%
D13*
%TO.P,R8,1*%
%TO.N,+3V3*%
X78325000Y-109500000D03*
%TO.P,R8,2*%
%TO.N,SDA*%
X76675000Y-109500000D03*
%TD*%
D14*
%TO.P,U2,1,~{RI}/CLK*%
%TO.N,unconnected-(U2-Pad1)*%
X108687500Y-124500000D03*
%TO.P,U2,2,GND*%
%TO.N,GND*%
X108687500Y-124000000D03*
%TO.P,U2,3,D+*%
%TO.N,/USB_D+*%
X108687500Y-123500000D03*
%TO.P,U2,4,D-*%
%TO.N,/USB_D-*%
X108687500Y-123000000D03*
%TO.P,U2,5,VIO*%
%TO.N,+3V3*%
X108687500Y-122500000D03*
%TO.P,U2,6,VDD*%
X108687500Y-122000000D03*
D15*
%TO.P,U2,7,VREGIN*%
%TO.N,VBUS*%
X108000000Y-121312500D03*
%TO.P,U2,8,VBUS*%
X107500000Y-121312500D03*
%TO.P,U2,9,~{RST}*%
%TO.N,Net-(R3-Pad1)*%
X107000000Y-121312500D03*
%TO.P,U2,10,NC*%
%TO.N,unconnected-(U2-Pad10)*%
X106500000Y-121312500D03*
%TO.P,U2,11,~{WAKEUP}/GPIO.3*%
%TO.N,unconnected-(U2-Pad11)*%
X106000000Y-121312500D03*
%TO.P,U2,12,RS485/GPIO.2*%
%TO.N,unconnected-(U2-Pad12)*%
X105500000Y-121312500D03*
D14*
%TO.P,U2,13,~{RXT}/GPIO.1*%
%TO.N,unconnected-(U2-Pad13)*%
X104812500Y-122000000D03*
%TO.P,U2,14,~{TXT}/GPIO.0*%
%TO.N,unconnected-(U2-Pad14)*%
X104812500Y-122500000D03*
%TO.P,U2,15,~{SUSPEND}*%
%TO.N,unconnected-(U2-Pad15)*%
X104812500Y-123000000D03*
%TO.P,U2,16,NC*%
%TO.N,unconnected-(U2-Pad16)*%
X104812500Y-123500000D03*
%TO.P,U2,17,SUSPEND*%
%TO.N,unconnected-(U2-Pad17)*%
X104812500Y-124000000D03*
%TO.P,U2,18,~{CTS}*%
%TO.N,unconnected-(U2-Pad18)*%
X104812500Y-124500000D03*
D15*
%TO.P,U2,19,~{RTS}*%
%TO.N,RTS*%
X105500000Y-125187500D03*
%TO.P,U2,20,RXD*%
%TO.N,TX0*%
X106000000Y-125187500D03*
%TO.P,U2,21,TXD*%
%TO.N,RX0*%
X106500000Y-125187500D03*
%TO.P,U2,22,~{DSR}*%
%TO.N,unconnected-(U2-Pad22)*%
X107000000Y-125187500D03*
%TO.P,U2,23,~{DTR}*%
%TO.N,DTR*%
X107500000Y-125187500D03*
%TO.P,U2,24,~{DCD}*%
%TO.N,unconnected-(U2-Pad24)*%
X108000000Y-125187500D03*
D16*
%TO.P,U2,25,GND*%
%TO.N,GND*%
X106750000Y-123250000D03*
%TD*%
D12*
%TO.P,R4,1*%
%TO.N,Net-(D1-Pad1)*%
X121500000Y-114425000D03*
%TO.P,R4,2*%
%TO.N,GND*%
X121500000Y-116075000D03*
%TD*%
D17*
%TO.P,R6,1*%
%TO.N,+3V3*%
X75175000Y-134500000D03*
%TO.P,R6,2*%
%TO.N,EN*%
X76825000Y-134500000D03*
%TD*%
D11*
%TO.P,C2,1*%
%TO.N,VBUS*%
X108550000Y-117700000D03*
%TO.P,C2,2*%
%TO.N,GND*%
X107000000Y-117700000D03*
%TD*%
D18*
%TO.P,Q1,1,B*%
%TO.N,Net-(Q1-Pad1)*%
X96437500Y-125450000D03*
%TO.P,Q1,2,E*%
%TO.N,RTS*%
X96437500Y-123550000D03*
%TO.P,Q1,3,C*%
%TO.N,EN*%
X94562500Y-124500000D03*
%TD*%
D19*
%TO.P,U1,1,GND*%
%TO.N,GND*%
X105700000Y-110150000D03*
%TO.P,U1,2,VO*%
%TO.N,+3V3*%
X108000000Y-110150000D03*
D20*
X108000000Y-103850000D03*
D19*
%TO.P,U1,3,VI*%
%TO.N,VBUS*%
X110300000Y-110150000D03*
%TD*%
D21*
%TO.P,J2,1,Pin_1*%
%TO.N,GND*%
X86500000Y-100500000D03*
D22*
%TO.P,J2,2,Pin_2*%
%TO.N,unconnected-(J2-Pad2)*%
X85230000Y-100500000D03*
%TO.P,J2,3,Pin_3*%
%TO.N,+3V3*%
X83960000Y-100500000D03*
%TO.P,J2,4,Pin_4*%
%TO.N,RX0*%
X82690000Y-100500000D03*
%TO.P,J2,5,Pin_5*%
%TO.N,TX0*%
X81420000Y-100500000D03*
%TO.P,J2,6,Pin_6*%
%TO.N,unconnected-(J2-Pad6)*%
X80150000Y-100500000D03*
%TD*%
D11*
%TO.P,C1,1*%
%TO.N,VBUS*%
X108775000Y-114500000D03*
%TO.P,C1,2*%
%TO.N,GND*%
X107225000Y-114500000D03*
%TD*%
D17*
%TO.P,R7,1*%
%TO.N,+3V3*%
X71175000Y-109500000D03*
%TO.P,R7,2*%
%TO.N,SCL*%
X72825000Y-109500000D03*
%TD*%
D11*
%TO.P,C4,1*%
%TO.N,VBUS*%
X108575000Y-119200000D03*
%TO.P,C4,2*%
%TO.N,GND*%
X107025000Y-119200000D03*
%TD*%
D23*
%TO.P,R5,1*%
%TO.N,Net-(R5-Pad1)*%
X81050000Y-104575000D03*
%TO.P,R5,2*%
%TO.N,TX0*%
X81050000Y-102925000D03*
%TD*%
D24*
%TO.P,D1,1,K*%
%TO.N,Net-(D1-Pad1)*%
X125287500Y-112750000D03*
%TO.P,D1,2,A*%
%TO.N,+3V3*%
X123712500Y-112750000D03*
%TD*%
D25*
%TO.P,C5,1*%
%TO.N,+3V3*%
X110250000Y-125475000D03*
%TO.P,C5,2*%
%TO.N,GND*%
X110250000Y-127025000D03*
%TD*%
D11*
%TO.P,C7,1*%
%TO.N,+3V3*%
X71275000Y-134500000D03*
%TO.P,C7,2*%
%TO.N,GND*%
X69725000Y-134500000D03*
%TD*%
D12*
%TO.P,R3,1*%
%TO.N,Net-(R3-Pad1)*%
X111750000Y-116675000D03*
%TO.P,R3,2*%
%TO.N,+3V3*%
X111750000Y-118325000D03*
%TD*%
D26*
%TO.P,J1,1,VBUS*%
%TO.N,VBUS*%
X122600000Y-123050000D03*
%TO.P,J1,2,D-*%
%TO.N,/USB_D-*%
X122600000Y-122400000D03*
%TO.P,J1,3,D+*%
%TO.N,/USB_D+*%
X122600000Y-121750000D03*
%TO.P,J1,4,ID*%
%TO.N,unconnected-(J1-Pad4)*%
X122600000Y-121100000D03*
%TO.P,J1,5,GND*%
%TO.N,GND*%
X122600000Y-120450000D03*
D27*
%TO.P,J1,6,Shield*%
%TO.N,unconnected-(J1-Pad6)*%
X125300000Y-120750000D03*
D28*
X125300000Y-118850000D03*
D29*
X125300000Y-125250000D03*
D30*
X122600000Y-119250000D03*
D27*
X125300000Y-122750000D03*
D28*
X125300000Y-124650000D03*
D30*
X122600000Y-124250000D03*
D29*
X125300000Y-118250000D03*
%TD*%
D11*
%TO.P,C6,1*%
%TO.N,EN*%
X76775000Y-136000000D03*
%TO.P,C6,2*%
%TO.N,GND*%
X75225000Y-136000000D03*
%TD*%
D21*
%TO.P,J3,1,Pin_1*%
%TO.N,SDA*%
X76400000Y-100500000D03*
D22*
%TO.P,J3,2,Pin_2*%
%TO.N,SCL*%
X75130000Y-100500000D03*
%TO.P,J3,3,Pin_3*%
%TO.N,+3V3*%
X73860000Y-100500000D03*
%TO.P,J3,4,Pin_4*%
%TO.N,GND*%
X72590000Y-100500000D03*
%TD*%
D21*
%TO.P,J4,1,Pin_1*%
%TO.N,+3V3*%
X82690000Y-109500000D03*
D22*
%TO.P,J4,2,Pin_2*%
%TO.N,RX2*%
X83960000Y-109500000D03*
%TO.P,J4,3,Pin_3*%
%TO.N,TX2*%
X85230000Y-109500000D03*
%TO.P,J4,4,Pin_4*%
%TO.N,GND*%
X86500000Y-109500000D03*
%TD*%
D31*
%TO.P,D2,1,K*%
%TO.N,Net-(D2-Pad1)*%
X90600000Y-108812500D03*
%TO.P,D2,2,A*%
%TO.N,GPIO19*%
X90600000Y-110387500D03*
%TD*%
D18*
%TO.P,Q2,1,B*%
%TO.N,Net-(Q2-Pad1)*%
X96437500Y-121950000D03*
%TO.P,Q2,2,E*%
%TO.N,DTR*%
X96437500Y-120050000D03*
%TO.P,Q2,3,C*%
%TO.N,GPIO0*%
X94562500Y-121000000D03*
%TD*%
D13*
%TO.P,R2,1*%
%TO.N,RTS*%
X100825000Y-121000000D03*
%TO.P,R2,2*%
%TO.N,Net-(Q2-Pad1)*%
X99175000Y-121000000D03*
%TD*%
D32*
%TO.P,U3,1,GND*%
%TO.N,GND*%
X69945000Y-131500000D03*
%TO.P,U3,2,VDD*%
%TO.N,+3V3*%
X71215000Y-131500000D03*
%TO.P,U3,3,EN*%
%TO.N,EN*%
X72485000Y-131500000D03*
%TO.P,U3,4,SENSOR_VP*%
%TO.N,unconnected-(U3-Pad4)*%
X73755000Y-131500000D03*
%TO.P,U3,5,SENSOR_VN*%
%TO.N,unconnected-(U3-Pad5)*%
X75025000Y-131500000D03*
%TO.P,U3,6,IO34*%
%TO.N,unconnected-(U3-Pad6)*%
X76295000Y-131500000D03*
%TO.P,U3,7,IO35*%
%TO.N,unconnected-(U3-Pad7)*%
X77565000Y-131500000D03*
%TO.P,U3,8,IO32*%
%TO.N,unconnected-(U3-Pad8)*%
X78835000Y-131500000D03*
%TO.P,U3,9,IO33*%
%TO.N,unconnected-(U3-Pad9)*%
X80105000Y-131500000D03*
%TO.P,U3,10,IO25*%
%TO.N,unconnected-(U3-Pad10)*%
X81375000Y-131500000D03*
%TO.P,U3,11,IO26*%
%TO.N,unconnected-(U3-Pad11)*%
X82645000Y-131500000D03*
%TO.P,U3,12,IO27*%
%TO.N,unconnected-(U3-Pad12)*%
X83915000Y-131500000D03*
%TO.P,U3,13,IO14*%
%TO.N,unconnected-(U3-Pad13)*%
X85185000Y-131500000D03*
%TO.P,U3,14,IO12*%
%TO.N,unconnected-(U3-Pad14)*%
X86455000Y-131500000D03*
D33*
%TO.P,U3,15,GND*%
%TO.N,GND*%
X87455000Y-128715000D03*
%TO.P,U3,16,IO13*%
%TO.N,unconnected-(U3-Pad16)*%
X87455000Y-127445000D03*
%TO.P,U3,17,SHD/SD2*%
%TO.N,unconnected-(U3-Pad17)*%
X87455000Y-126175000D03*
%TO.P,U3,18,SWP/SD3*%
%TO.N,unconnected-(U3-Pad18)*%
X87455000Y-124905000D03*
%TO.P,U3,19,SCS/CMD*%
%TO.N,unconnected-(U3-Pad19)*%
X87455000Y-123635000D03*
%TO.P,U3,20,SCK/CLK*%
%TO.N,unconnected-(U3-Pad20)*%
X87455000Y-122365000D03*
%TO.P,U3,21,SDO/SD0*%
%TO.N,unconnected-(U3-Pad21)*%
X87455000Y-121095000D03*
%TO.P,U3,22,SDI/SD1*%
%TO.N,unconnected-(U3-Pad22)*%
X87455000Y-119825000D03*
%TO.P,U3,23,IO15*%
%TO.N,unconnected-(U3-Pad23)*%
X87455000Y-118555000D03*
%TO.P,U3,24,IO2*%
%TO.N,unconnected-(U3-Pad24)*%
X87455000Y-117285000D03*
D32*
%TO.P,U3,25,IO0*%
%TO.N,GPIO0*%
X86455000Y-114500000D03*
%TO.P,U3,26,IO4*%
%TO.N,unconnected-(U3-Pad26)*%
X85185000Y-114500000D03*
%TO.P,U3,27,IO16*%
%TO.N,RX2*%
X83915000Y-114500000D03*
%TO.P,U3,28,IO17*%
%TO.N,TX2*%
X82645000Y-114500000D03*
%TO.P,U3,29,IO5*%
%TO.N,unconnected-(U3-Pad29)*%
X81375000Y-114500000D03*
%TO.P,U3,30,IO18*%
%TO.N,GPIO18*%
X80105000Y-114500000D03*
%TO.P,U3,31,IO19*%
%TO.N,GPIO19*%
X78835000Y-114500000D03*
%TO.P,U3,32,NC*%
%TO.N,unconnected-(U3-Pad32)*%
X77565000Y-114500000D03*
%TO.P,U3,33,IO21*%
%TO.N,SDA*%
X76295000Y-114500000D03*
%TO.P,U3,34,RXD0/IO3*%
%TO.N,RX0*%
X75025000Y-114500000D03*
%TO.P,U3,35,TXD0/IO1*%
%TO.N,Net-(R5-Pad1)*%
X73755000Y-114500000D03*
%TO.P,U3,36,IO22*%
%TO.N,SCL*%
X72485000Y-114500000D03*
%TO.P,U3,37,IO23*%
%TO.N,unconnected-(U3-Pad37)*%
X71215000Y-114500000D03*
%TO.P,U3,38,GND*%
%TO.N,GND*%
X69945000Y-114500000D03*
D34*
%TO.P,U3,39,GND*%
X77445000Y-124000000D03*
%TD*%
D13*
%TO.P,R1,1*%
%TO.N,DTR*%
X101000000Y-124000000D03*
%TO.P,R1,2*%
%TO.N,Net-(Q1-Pad1)*%
X99350000Y-124000000D03*
%TD*%
D35*
%TO.N,VBUS*%
X116950000Y-114500000D03*
X121250000Y-123154500D03*
%TO.N,GND*%
X80750000Y-122750000D03*
X73900000Y-136000000D03*
X88100000Y-109500000D03*
X70750000Y-100500000D03*
X74250000Y-122750000D03*
X70000000Y-112750000D03*
X74250000Y-124750000D03*
X93100000Y-111900000D03*
X120250000Y-116250000D03*
X89050000Y-129100000D03*
X69945000Y-133195000D03*
X80750000Y-123750000D03*
X111500000Y-127000000D03*
X88150000Y-100500000D03*
X121250000Y-120500000D03*
X80750000Y-121750000D03*
X74250000Y-121750000D03*
X110000000Y-124250000D03*
X69700000Y-135850000D03*
X96750000Y-115250000D03*
X80750000Y-124750000D03*
X103750000Y-110650000D03*
X106950000Y-116531321D03*
X105900000Y-119200000D03*
X80750000Y-125750000D03*
X74250000Y-123750000D03*
X74250000Y-125750000D03*
X94500000Y-105500000D03*
X103750000Y-109500000D03*
%TO.N,+3V3*%
X71200000Y-111600000D03*
X71200000Y-130000000D03*
X113750000Y-118000000D03*
X85300000Y-104050000D03*
X107950000Y-102000000D03*
X111500000Y-125500000D03*
%TO.N,/USB_D+*%
X111000000Y-123750000D03*
X111750000Y-122250000D03*
%TO.N,RX0*%
X75000000Y-116750000D03*
X77300000Y-106400000D03*
X106500000Y-127750000D03*
X75500000Y-106400000D03*
%TO.N,TX0*%
X79950000Y-102850000D03*
X105250000Y-127750000D03*
%TO.N,RX2*%
X83900000Y-112750000D03*
X83950000Y-111250000D03*
%TO.N,DTR*%
X100400000Y-127600000D03*
X100400000Y-126000000D03*
%TO.N,GPIO0*%
X89450000Y-113550000D03*
X91550000Y-113550000D03*
%TO.N,Net-(R3-Pad1)*%
X110250000Y-116500000D03*
X103650000Y-119450000D03*
%TO.N,GPIO18*%
X80150000Y-112400000D03*
X88750000Y-107000000D03*
%TO.N,Net-(R5-Pad1)*%
X77300000Y-105100000D03*
X75500000Y-105050000D03*
%TD*%
D36*
%TO.N,VBUS*%
X110300000Y-112975000D02*
X110850000Y-112425000D01*
D37*
X108575000Y-120675000D02*
X108575000Y-119200000D01*
X107500000Y-121312500D02*
X108000000Y-121312500D01*
X121259000Y-123050000D02*
X122915000Y-123050000D01*
X121245500Y-123154500D02*
X121345000Y-123055000D01*
D36*
X108775000Y-116625000D02*
X108775000Y-117775000D01*
X110300000Y-112975000D02*
X115425000Y-112975000D01*
D37*
X108000000Y-121312500D02*
X108000000Y-121250000D01*
D36*
X115425000Y-112975000D02*
X116950000Y-114500000D01*
X108775000Y-114500000D02*
X108775000Y-116625000D01*
X110850000Y-110700000D02*
X110300000Y-110150000D01*
D37*
X121154500Y-123154500D02*
X121245500Y-123154500D01*
X108000000Y-121250000D02*
X108575000Y-120675000D01*
X121250000Y-123154500D02*
X121154500Y-123154500D01*
D36*
X110850000Y-112425000D02*
X110850000Y-110700000D01*
D37*
X108550000Y-119500000D02*
X108550000Y-118000000D01*
D36*
X108775000Y-114500000D02*
X110300000Y-112975000D01*
D37*
X121154500Y-123154500D02*
X121259000Y-123050000D01*
D36*
%TO.N,GND*%
X111475000Y-127025000D02*
X111500000Y-127000000D01*
D37*
X96750000Y-115250000D02*
X96750000Y-113475000D01*
D36*
X87455000Y-128715000D02*
X88665000Y-128715000D01*
X107025000Y-119200000D02*
X105900000Y-119200000D01*
D38*
X109750000Y-124000000D02*
X110000000Y-124250000D01*
D36*
X75225000Y-136000000D02*
X73900000Y-136000000D01*
D38*
X108687500Y-124000000D02*
X109750000Y-124000000D01*
D36*
X86500000Y-100500000D02*
X88150000Y-100500000D01*
X69725000Y-135825000D02*
X69700000Y-135850000D01*
X88100000Y-109500000D02*
X86500000Y-109500000D01*
X107000000Y-119175000D02*
X107025000Y-119200000D01*
D37*
X96750000Y-105525000D02*
X94500000Y-105500000D01*
X121325000Y-116250000D02*
X121500000Y-116075000D01*
X120250000Y-116250000D02*
X121325000Y-116250000D01*
D36*
X69725000Y-134500000D02*
X69725000Y-135825000D01*
X69945000Y-131500000D02*
X69945000Y-133195000D01*
X106900000Y-116581321D02*
X106900000Y-117900000D01*
D37*
X108687500Y-124000000D02*
X107500000Y-124000000D01*
X107500000Y-124000000D02*
X106750000Y-123250000D01*
D36*
X69945000Y-112805000D02*
X70000000Y-112750000D01*
X93100000Y-110425000D02*
X93100000Y-111900000D01*
X88665000Y-128715000D02*
X89050000Y-129100000D01*
D37*
X121250000Y-120500000D02*
X122865000Y-120500000D01*
D36*
X106950000Y-116531321D02*
X106900000Y-116581321D01*
X110250000Y-127025000D02*
X111475000Y-127025000D01*
X70750000Y-100500000D02*
X72590000Y-100500000D01*
X107000000Y-117700000D02*
X107000000Y-119175000D01*
X69945000Y-114500000D02*
X69945000Y-112805000D01*
%TO.N,+3V3*%
X109750000Y-122000000D02*
X111750000Y-120000000D01*
X119250000Y-112750000D02*
X117799511Y-114200489D01*
X71215000Y-134440000D02*
X71275000Y-134500000D01*
X71200000Y-130000000D02*
X71200000Y-131485000D01*
X83960000Y-100260000D02*
X83960000Y-100500000D01*
X82690000Y-106710000D02*
X82690000Y-109500000D01*
X117799511Y-114200489D02*
X117799511Y-114851880D01*
X71275000Y-134500000D02*
X75175000Y-134500000D01*
X117301880Y-115349511D02*
X114725489Y-115349511D01*
X111100000Y-103850000D02*
X120000000Y-112750000D01*
X71150000Y-109475000D02*
X71175000Y-109500000D01*
X82600000Y-98900000D02*
X83960000Y-100260000D01*
X71175000Y-109500000D02*
X71175000Y-111575000D01*
X85210000Y-103960000D02*
X85300000Y-104050000D01*
X117799511Y-114851880D02*
X117301880Y-115349511D01*
X71215000Y-131500000D02*
X71215000Y-134440000D01*
X120000000Y-112750000D02*
X121000000Y-112750000D01*
X114725489Y-115349511D02*
X111750000Y-118325000D01*
X73860000Y-101340000D02*
X71150000Y-104050000D01*
X107950000Y-103800000D02*
X108000000Y-103850000D01*
X112075000Y-118000000D02*
X111750000Y-118325000D01*
X73860000Y-100500000D02*
X73860000Y-99790000D01*
X74750000Y-98900000D02*
X82600000Y-98900000D01*
X73860000Y-99790000D02*
X74750000Y-98900000D01*
X71175000Y-111575000D02*
X71200000Y-111600000D01*
X108000000Y-103850000D02*
X111100000Y-103850000D01*
X71200000Y-131485000D02*
X71215000Y-131500000D01*
X121000000Y-112750000D02*
X119250000Y-112750000D01*
X111475000Y-125475000D02*
X110250000Y-125475000D01*
X78325000Y-109500000D02*
X82690000Y-109500000D01*
X83960000Y-103960000D02*
X83960000Y-105440000D01*
X107950000Y-102000000D02*
X107950000Y-103800000D01*
X111750000Y-120000000D02*
X111750000Y-118325000D01*
X83960000Y-103960000D02*
X85210000Y-103960000D01*
X108687500Y-122000000D02*
X109750000Y-122000000D01*
X121000000Y-112750000D02*
X123712500Y-112750000D01*
X111500000Y-125500000D02*
X111475000Y-125475000D01*
X83960000Y-105440000D02*
X82690000Y-106710000D01*
X113750000Y-118000000D02*
X112075000Y-118000000D01*
X71150000Y-104850000D02*
X71150000Y-109475000D01*
X73860000Y-100500000D02*
X73860000Y-101340000D01*
X71150000Y-104050000D02*
X71150000Y-104850000D01*
X83960000Y-100500000D02*
X83960000Y-103960000D01*
X108687500Y-122000000D02*
X108687500Y-122400480D01*
D38*
%TO.N,EN*%
X84054022Y-136000000D02*
X94562500Y-125491522D01*
X72985000Y-133250000D02*
X75575000Y-133250000D01*
X94562500Y-125491522D02*
X94562500Y-124500000D01*
X76775000Y-136000000D02*
X84054022Y-136000000D01*
X76775000Y-136000000D02*
X76775000Y-134550000D01*
X72485000Y-132750000D02*
X72985000Y-133250000D01*
X75575000Y-133250000D02*
X76825000Y-134500000D01*
X72485000Y-131500000D02*
X72485000Y-132750000D01*
X76775000Y-134550000D02*
X76825000Y-134500000D01*
D37*
%TO.N,Net-(D1-Pad1)*%
X121500000Y-114425000D02*
X123612500Y-114425000D01*
X123612500Y-114425000D02*
X125287500Y-112750000D01*
%TO.N,Net-(D2-Pad1)*%
X90600000Y-108812500D02*
X93062500Y-108812500D01*
X93062500Y-108812500D02*
X93100000Y-108775000D01*
D38*
%TO.N,GPIO19*%
X88800000Y-116150000D02*
X79750000Y-116150000D01*
X90600000Y-110387500D02*
X90600000Y-114350000D01*
X79750000Y-116150000D02*
X78835000Y-115235000D01*
X90600000Y-114350000D02*
X88800000Y-116150000D01*
X78835000Y-115235000D02*
X78835000Y-114500000D01*
D37*
%TO.N,/USB_D-*%
X114950000Y-123319442D02*
X115250000Y-123019442D01*
X113750000Y-123319442D02*
X114050000Y-123019442D01*
X114650000Y-122350000D02*
X114650000Y-123019442D01*
X115250000Y-123019442D02*
X115250000Y-122350000D01*
X112059970Y-123000000D02*
X112659970Y-122400000D01*
X114100000Y-122300000D02*
X114600000Y-122300000D01*
X114600000Y-122300000D02*
X114650000Y-122350000D01*
X114050000Y-122350000D02*
X114100000Y-122300000D01*
X115850000Y-122350000D02*
X115850000Y-123019442D01*
X116450000Y-123019442D02*
X116450000Y-122700000D01*
X113450000Y-122700000D02*
X113450000Y-123019442D01*
X116450000Y-122700000D02*
X116750000Y-122400000D01*
X108687500Y-123000000D02*
X112059970Y-123000000D01*
X115800000Y-122300000D02*
X115850000Y-122350000D01*
X113150000Y-122400000D02*
X113450000Y-122700000D01*
X116150000Y-123319442D02*
X116450000Y-123019442D01*
X115250000Y-122350000D02*
X115300000Y-122300000D01*
X115300000Y-122300000D02*
X115800000Y-122300000D01*
X114050000Y-123019442D02*
X114050000Y-122350000D01*
X115850000Y-123019442D02*
X116150000Y-123319442D01*
X112659970Y-122400000D02*
X113150000Y-122400000D01*
X116750000Y-122400000D02*
X122915000Y-122400000D01*
X113450000Y-123019442D02*
X113750000Y-123319442D01*
X114650000Y-123019442D02*
X114950000Y-123319442D01*
D39*
%TO.N,/USB_D+*%
X111000000Y-123750000D02*
X110750000Y-123500000D01*
D37*
X112250000Y-121750000D02*
X122915000Y-121750000D01*
D39*
X110750000Y-123500000D02*
X108687500Y-123500000D01*
D37*
X111750000Y-122250000D02*
X112250000Y-121750000D01*
D38*
%TO.N,unconnected-(J1-Pad6)*%
X125550000Y-118850000D02*
X125550000Y-120750000D01*
X125550000Y-122750000D02*
X125550000Y-124650000D01*
X125550000Y-120750000D02*
X125550000Y-122750000D01*
X122850000Y-124250000D02*
X125150000Y-124250000D01*
X125150000Y-124250000D02*
X125550000Y-124650000D01*
X122850000Y-119250000D02*
X125150000Y-119250000D01*
X125150000Y-119250000D02*
X125550000Y-118850000D01*
%TO.N,RX0*%
X81650000Y-106400000D02*
X77300000Y-106400000D01*
X106500000Y-125647328D02*
X106500000Y-125187500D01*
X82690000Y-100500000D02*
X82690000Y-105360000D01*
D37*
X75025000Y-116725000D02*
X75025000Y-114500000D01*
X75000000Y-116750000D02*
X75025000Y-116725000D01*
D38*
X82690000Y-105360000D02*
X81650000Y-106400000D01*
X75025000Y-106875000D02*
X75500000Y-106400000D01*
X75025000Y-114500000D02*
X75025000Y-106875000D01*
X106750000Y-125897328D02*
X106500000Y-125647328D01*
X106750000Y-127500000D02*
X106750000Y-125897328D01*
X106500000Y-127750000D02*
X106750000Y-127500000D01*
D36*
%TO.N,TX0*%
X81050000Y-102925000D02*
X80025000Y-102925000D01*
D38*
X105250000Y-127750000D02*
X105250000Y-126500000D01*
D36*
X81000000Y-102600000D02*
X81420000Y-102180000D01*
D38*
X105250000Y-126500000D02*
X106000000Y-125750000D01*
D36*
X81420000Y-102180000D02*
X81420000Y-100500000D01*
X80025000Y-102925000D02*
X79950000Y-102850000D01*
D38*
X106000000Y-125750000D02*
X106000000Y-125187500D01*
D37*
%TO.N,SDA*%
X76675000Y-109500000D02*
X76400000Y-109225000D01*
X76700000Y-113150000D02*
X76700000Y-109525000D01*
X76295000Y-114500000D02*
X76295000Y-113555000D01*
X76295000Y-113555000D02*
X76700000Y-113150000D01*
X76400000Y-109225000D02*
X76400000Y-100500000D01*
%TO.N,SCL*%
X72485000Y-109840000D02*
X72825000Y-109500000D01*
X75130000Y-102220000D02*
X75130000Y-100500000D01*
X72825000Y-109500000D02*
X72825000Y-104525000D01*
X72485000Y-114500000D02*
X72485000Y-109840000D01*
X72825000Y-104525000D02*
X75130000Y-102220000D01*
D38*
%TO.N,RX2*%
X83915000Y-114500000D02*
X83915000Y-112765000D01*
X83915000Y-112765000D02*
X83900000Y-112750000D01*
X83960000Y-109500000D02*
X83960000Y-111240000D01*
X83960000Y-111240000D02*
X83950000Y-111250000D01*
%TO.N,TX2*%
X85230000Y-110994614D02*
X84199125Y-112025489D01*
X85230000Y-109500000D02*
X85230000Y-110994614D01*
X82645000Y-112955000D02*
X82645000Y-114500000D01*
X83574511Y-112025489D02*
X82645000Y-112955000D01*
X84199125Y-112025489D02*
X83574511Y-112025489D01*
%TO.N,Net-(Q1-Pad1)*%
X99350000Y-124000000D02*
X97900000Y-125450000D01*
X97900000Y-125450000D02*
X96437500Y-125450000D01*
%TO.N,RTS*%
X95375480Y-126175480D02*
X95950000Y-126750000D01*
X105500000Y-125614282D02*
X105264282Y-125850000D01*
X96437500Y-123550000D02*
X96437500Y-124041428D01*
X95950000Y-126750000D02*
X101250000Y-126750000D01*
X102400000Y-122575000D02*
X100825000Y-121000000D01*
X95375480Y-125103448D02*
X95375480Y-126175480D01*
X101500000Y-126750000D02*
X102400000Y-125850000D01*
X105500000Y-125187500D02*
X105500000Y-125614282D01*
X96437500Y-124041428D02*
X95375480Y-125103448D01*
X102400000Y-125850000D02*
X102400000Y-122575000D01*
X101250000Y-126750000D02*
X101500000Y-126750000D01*
X105264282Y-125850000D02*
X102400000Y-125850000D01*
%TO.N,Net-(Q2-Pad1)*%
X96437500Y-121950000D02*
X98225000Y-121950000D01*
X98225000Y-121950000D02*
X99175000Y-121000000D01*
%TO.N,DTR*%
X101000000Y-124000000D02*
X100400000Y-124600000D01*
X102550000Y-129750000D02*
X106750000Y-129750000D01*
X107500000Y-129000000D02*
X107500000Y-125187500D01*
X106750000Y-129750000D02*
X107500000Y-129000000D01*
X99441783Y-120050000D02*
X100100000Y-120708217D01*
X100100000Y-123100000D02*
X101000000Y-124000000D01*
X100400000Y-127600000D02*
X102550000Y-129750000D01*
X100400000Y-124600000D02*
X100400000Y-126000000D01*
X100100000Y-120708217D02*
X100100000Y-123100000D01*
X96437500Y-120050000D02*
X99441783Y-120050000D01*
D37*
%TO.N,GPIO0*%
X91550000Y-118750000D02*
X91550000Y-113550000D01*
X94562500Y-121000000D02*
X93800000Y-121000000D01*
D38*
X89450000Y-113550000D02*
X88500000Y-114500000D01*
X88500000Y-114500000D02*
X86455000Y-114500000D01*
D37*
X93800000Y-121000000D02*
X91550000Y-118750000D01*
%TO.N,Net-(R3-Pad1)*%
X103650000Y-119450000D02*
X103650000Y-119650000D01*
X107000000Y-120500000D02*
X107000000Y-121312500D01*
X110250000Y-116500000D02*
X111750000Y-116500000D01*
X103650000Y-119650000D02*
X104250000Y-120250000D01*
X104250000Y-120250000D02*
X106750000Y-120250000D01*
X106750000Y-120250000D02*
X107000000Y-120500000D01*
%TO.N,GPIO18*%
X98975000Y-103250000D02*
X101250000Y-105525000D01*
X88700000Y-106800000D02*
X92250000Y-103250000D01*
D36*
X80150000Y-114455000D02*
X80105000Y-114500000D01*
D37*
X92250000Y-103250000D02*
X98975000Y-103250000D01*
D36*
X80150000Y-112400000D02*
X80150000Y-114455000D01*
D37*
X101250000Y-105525000D02*
X101250000Y-113475000D01*
D38*
%TO.N,Net-(R5-Pad1)*%
X81000000Y-104825000D02*
X80725000Y-105100000D01*
D37*
X73755000Y-114500000D02*
X73755000Y-106795000D01*
X73755000Y-106795000D02*
X75500000Y-105050000D01*
D38*
X80725000Y-105100000D02*
X77300000Y-105100000D01*
%TD*%
%TA.AperFunction,Conductor*%
%TO.N,GND*%
G36*
X81096288Y-121018954D02*
G01*
X81177070Y-121072930D01*
X81231046Y-121153712D01*
X81250000Y-121249000D01*
X81250000Y-127001000D01*
X81231046Y-127096288D01*
X81177070Y-127177070D01*
X81096288Y-127231046D01*
X81001000Y-127250000D01*
X73999000Y-127250000D01*
X73903712Y-127231046D01*
X73822930Y-127177070D01*
X73768954Y-127096288D01*
X73750000Y-127001000D01*
X73750000Y-121249000D01*
X73768954Y-121153712D01*
X73822930Y-121072930D01*
X73903712Y-121018954D01*
X73999000Y-121000000D01*
X81001000Y-121000000D01*
X81096288Y-121018954D01*
G37*
%TD.AperFunction*%
%TD*%
%TA.AperFunction,Conductor*%
%TO.N,+3V3*%
G36*
X110093039Y-102619685D02*
G01*
X110138794Y-102672489D01*
X110150000Y-102724000D01*
X110150000Y-105442968D01*
X110130315Y-105510007D01*
X110106698Y-105537116D01*
X109100000Y-106400000D01*
X109100000Y-111350000D01*
X109107964Y-111359291D01*
X109370148Y-111665173D01*
X109398831Y-111728884D01*
X109400000Y-111745871D01*
X109400000Y-112862456D01*
X109379174Y-112931239D01*
X109136811Y-113294783D01*
X109083246Y-113339644D01*
X109033637Y-113350000D01*
X108274000Y-113350000D01*
X108206961Y-113330315D01*
X108161206Y-113277511D01*
X108150000Y-113226000D01*
X108150000Y-111800000D01*
X107223114Y-111382901D01*
X107170058Y-111337441D01*
X107150000Y-111269824D01*
X107150000Y-106550000D01*
X107137534Y-106545845D01*
X107137533Y-106545844D01*
X106919217Y-106473072D01*
X106700000Y-106400000D01*
X106699092Y-106399728D01*
X106699068Y-106399720D01*
X106178669Y-106243601D01*
X105788368Y-106126510D01*
X105729813Y-106088393D01*
X105701161Y-106024669D01*
X105700000Y-106007741D01*
X105700000Y-102724000D01*
X105719685Y-102656961D01*
X105772489Y-102611206D01*
X105824000Y-102600000D01*
X110026000Y-102600000D01*
X110093039Y-102619685D01*
G37*
%TD.AperFunction*%
%TD*%
%TA.AperFunction,Conductor*%
%TO.N,GND*%
G36*
X106452478Y-108919685D02*
G01*
X106487024Y-108952891D01*
X106777585Y-109367979D01*
X106800000Y-109439088D01*
X106800000Y-111600000D01*
X107726886Y-112017099D01*
X107779942Y-112062559D01*
X107800000Y-112130176D01*
X107800000Y-115026000D01*
X107780315Y-115093039D01*
X107727511Y-115138794D01*
X107676000Y-115150000D01*
X106774000Y-115150000D01*
X106706961Y-115130315D01*
X106661206Y-115077511D01*
X106650000Y-115026000D01*
X106650000Y-112650000D01*
X106638388Y-112646585D01*
X106638387Y-112646584D01*
X104498133Y-112017098D01*
X103339010Y-111676179D01*
X103280250Y-111638379D01*
X103251254Y-111574811D01*
X103250000Y-111557219D01*
X103250000Y-109024000D01*
X103269685Y-108956961D01*
X103322489Y-108911206D01*
X103374000Y-108900000D01*
X106385439Y-108900000D01*
X106452478Y-108919685D01*
G37*
%TD.AperFunction*%
%TD*%
M02*
