M48
; DRILL file {KiCad (6.0.2)} date Tue Apr 19 16:18:26 2022
; FORMAT={-:-/ absolute / metric / decimal}
; #@! TF.CreationDate,2022-04-19T16:18:26-05:00
; #@! TF.GenerationSoftware,Kicad,Pcbnew,(6.0.2)
; #@! TF.FileFunction,MixedPlating,1,2
FMAT,2
METRIC
; #@! TA.AperFunction,Plated,PTH,ViaDrill
T1C0.400
; #@! TA.AperFunction,Plated,PTH,ComponentDrill
T2C0.500
; #@! TA.AperFunction,Plated,PTH,ComponentDrill
T3C0.550
; #@! TA.AperFunction,Plated,PTH,ComponentDrill
T4C0.650
; #@! TA.AperFunction,NonPlated,NPTH,ComponentDrill
T5C3.200
%
G90
G05
T1
X69.7Y-135.85
X69.945Y-133.195
X70.0Y-112.75
X70.75Y-100.5
X71.2Y-111.6
X71.2Y-130.0
X73.9Y-136.0
X74.25Y-121.75
X74.25Y-122.75
X74.25Y-123.75
X74.25Y-124.75
X74.25Y-125.75
X75.0Y-116.75
X75.5Y-105.05
X75.5Y-106.4
X77.3Y-105.1
X77.3Y-106.4
X79.95Y-102.85
X80.15Y-112.4
X80.75Y-121.75
X80.75Y-122.75
X80.75Y-123.75
X80.75Y-124.75
X80.75Y-125.75
X83.9Y-112.75
X83.95Y-111.25
X85.3Y-104.05
X88.1Y-109.5
X88.15Y-100.5
X88.75Y-107.0
X89.05Y-129.1
X89.45Y-113.55
X91.55Y-113.55
X93.1Y-111.9
X94.5Y-105.5
X96.75Y-115.25
X100.4Y-126.0
X100.4Y-127.6
X103.65Y-119.45
X103.75Y-109.5
X103.75Y-110.65
X105.25Y-127.75
X105.9Y-119.2
X106.5Y-127.75
X106.95Y-116.531
X107.95Y-102.0
X110.0Y-124.25
X110.25Y-116.5
X111.0Y-123.75
X111.5Y-125.5
X111.5Y-127.0
X111.75Y-122.25
X113.75Y-118.0
X116.95Y-114.5
X120.25Y-116.25
X121.25Y-120.5
X121.25Y-123.154
T4
X72.59Y-100.5
X73.86Y-100.5
X75.13Y-100.5
X76.4Y-100.5
X80.15Y-100.5
X81.42Y-100.5
X82.69Y-100.5
X82.69Y-109.5
X83.96Y-100.5
X83.96Y-109.5
X85.23Y-100.5
X85.23Y-109.5
X86.5Y-100.5
X86.5Y-109.5
T5
X66.0Y-101.25
X66.0Y-143.5
X123.0Y-101.25
X123.0Y-143.5
T2
G00X124.975Y-118.25
M15
G01X125.625Y-118.25
M16
G05
G00X124.975Y-125.25
M15
G01X125.625Y-125.25
M16
G05
T3
G00X122.6Y-119.4
M15
G01X122.6Y-119.1
M16
G05
G00X122.6Y-124.4
M15
G01X122.6Y-124.1
M16
G05
T0
M30
