%TF.GenerationSoftware,KiCad,Pcbnew,(6.0.2)*%
%TF.CreationDate,2022-04-19T16:18:31-05:00*%
%TF.ProjectId,Tlapixki-HelloWorld,546c6170-6978-46b6-992d-48656c6c6f57,rev?*%
%TF.SameCoordinates,Original*%
%TF.FileFunction,Legend,Top*%
%TF.FilePolarity,Positive*%
%FSLAX46Y46*%
G04 Gerber Fmt 4.6, Leading zero omitted, Abs format (unit mm)*
G04 Created by KiCad (PCBNEW (6.0.2)) date 2022-04-19 16:18:31*
%MOMM*%
%LPD*%
G01*
G04 APERTURE LIST*
%ADD10C,0.300000*%
%ADD11C,0.150000*%
%ADD12C,0.120000*%
G04 APERTURE END LIST*
D10*
X89785714Y-100392857D02*
X89285714Y-100392857D01*
X89285714Y-101178571D02*
X89285714Y-99678571D01*
X90000000Y-99678571D01*
X90357142Y-99678571D02*
X91214285Y-99678571D01*
X90785714Y-101178571D02*
X90785714Y-99678571D01*
X91714285Y-101178571D02*
X91714285Y-99678571D01*
X92071428Y-99678571D01*
X92285714Y-99750000D01*
X92428571Y-99892857D01*
X92500000Y-100035714D01*
X92571428Y-100321428D01*
X92571428Y-100535714D01*
X92500000Y-100821428D01*
X92428571Y-100964285D01*
X92285714Y-101107142D01*
X92071428Y-101178571D01*
X91714285Y-101178571D01*
X93214285Y-101178571D02*
X93214285Y-99678571D01*
D11*
X83066666Y-102366666D02*
X83300000Y-103066666D01*
X83533333Y-102366666D01*
X84166666Y-103000000D02*
X84133333Y-103033333D01*
X84033333Y-103066666D01*
X83966666Y-103066666D01*
X83866666Y-103033333D01*
X83800000Y-102966666D01*
X83766666Y-102900000D01*
X83733333Y-102766666D01*
X83733333Y-102666666D01*
X83766666Y-102533333D01*
X83800000Y-102466666D01*
X83866666Y-102400000D01*
X83966666Y-102366666D01*
X84033333Y-102366666D01*
X84133333Y-102400000D01*
X84166666Y-102433333D01*
X84866666Y-103000000D02*
X84833333Y-103033333D01*
X84733333Y-103066666D01*
X84666666Y-103066666D01*
X84566666Y-103033333D01*
X84500000Y-102966666D01*
X84466666Y-102900000D01*
X84433333Y-102766666D01*
X84433333Y-102666666D01*
X84466666Y-102533333D01*
X84500000Y-102466666D01*
X84566666Y-102400000D01*
X84666666Y-102366666D01*
X84733333Y-102366666D01*
X84833333Y-102400000D01*
X84866666Y-102433333D01*
X85042857Y-107421428D02*
X85385714Y-107421428D01*
X85214285Y-108021428D02*
X85214285Y-107421428D01*
X85528571Y-107421428D02*
X85928571Y-108021428D01*
X85928571Y-107421428D02*
X85528571Y-108021428D01*
X76271428Y-98992857D02*
X76357142Y-99021428D01*
X76500000Y-99021428D01*
X76557142Y-98992857D01*
X76585714Y-98964285D01*
X76614285Y-98907142D01*
X76614285Y-98850000D01*
X76585714Y-98792857D01*
X76557142Y-98764285D01*
X76500000Y-98735714D01*
X76385714Y-98707142D01*
X76328571Y-98678571D01*
X76300000Y-98650000D01*
X76271428Y-98592857D01*
X76271428Y-98535714D01*
X76300000Y-98478571D01*
X76328571Y-98450000D01*
X76385714Y-98421428D01*
X76528571Y-98421428D01*
X76614285Y-98450000D01*
X76871428Y-99021428D02*
X76871428Y-98421428D01*
X77014285Y-98421428D01*
X77100000Y-98450000D01*
X77157142Y-98507142D01*
X77185714Y-98564285D01*
X77214285Y-98678571D01*
X77214285Y-98764285D01*
X77185714Y-98878571D01*
X77157142Y-98935714D01*
X77100000Y-98992857D01*
X77014285Y-99021428D01*
X76871428Y-99021428D01*
X77442857Y-98850000D02*
X77728571Y-98850000D01*
X77385714Y-99021428D02*
X77585714Y-98421428D01*
X77785714Y-99021428D01*
X82650000Y-99021428D02*
X82450000Y-98735714D01*
X82307142Y-99021428D02*
X82307142Y-98421428D01*
X82535714Y-98421428D01*
X82592857Y-98450000D01*
X82621428Y-98478571D01*
X82650000Y-98535714D01*
X82650000Y-98621428D01*
X82621428Y-98678571D01*
X82592857Y-98707142D01*
X82535714Y-98735714D01*
X82307142Y-98735714D01*
X82850000Y-98421428D02*
X83250000Y-99021428D01*
X83250000Y-98421428D02*
X82850000Y-99021428D01*
X81042857Y-98421428D02*
X81385714Y-98421428D01*
X81214285Y-99021428D02*
X81214285Y-98421428D01*
X81528571Y-98421428D02*
X81928571Y-99021428D01*
X81928571Y-98421428D02*
X81528571Y-99021428D01*
X72816666Y-102366666D02*
X73050000Y-103066666D01*
X73283333Y-102366666D01*
X73916666Y-103000000D02*
X73883333Y-103033333D01*
X73783333Y-103066666D01*
X73716666Y-103066666D01*
X73616666Y-103033333D01*
X73550000Y-102966666D01*
X73516666Y-102900000D01*
X73483333Y-102766666D01*
X73483333Y-102666666D01*
X73516666Y-102533333D01*
X73550000Y-102466666D01*
X73616666Y-102400000D01*
X73716666Y-102366666D01*
X73783333Y-102366666D01*
X73883333Y-102400000D01*
X73916666Y-102433333D01*
X74616666Y-103000000D02*
X74583333Y-103033333D01*
X74483333Y-103066666D01*
X74416666Y-103066666D01*
X74316666Y-103033333D01*
X74250000Y-102966666D01*
X74216666Y-102900000D01*
X74183333Y-102766666D01*
X74183333Y-102666666D01*
X74216666Y-102533333D01*
X74250000Y-102466666D01*
X74316666Y-102400000D01*
X74416666Y-102366666D01*
X74483333Y-102366666D01*
X74583333Y-102400000D01*
X74616666Y-102433333D01*
X70466666Y-102400000D02*
X70400000Y-102366666D01*
X70300000Y-102366666D01*
X70200000Y-102400000D01*
X70133333Y-102466666D01*
X70100000Y-102533333D01*
X70066666Y-102666666D01*
X70066666Y-102766666D01*
X70100000Y-102900000D01*
X70133333Y-102966666D01*
X70200000Y-103033333D01*
X70300000Y-103066666D01*
X70366666Y-103066666D01*
X70466666Y-103033333D01*
X70500000Y-103000000D01*
X70500000Y-102766666D01*
X70366666Y-102766666D01*
X70800000Y-103066666D02*
X70800000Y-102366666D01*
X71200000Y-103066666D01*
X71200000Y-102366666D01*
X71533333Y-103066666D02*
X71533333Y-102366666D01*
X71700000Y-102366666D01*
X71800000Y-102400000D01*
X71866666Y-102466666D01*
X71900000Y-102533333D01*
X71933333Y-102666666D01*
X71933333Y-102766666D01*
X71900000Y-102900000D01*
X71866666Y-102966666D01*
X71800000Y-103033333D01*
X71700000Y-103066666D01*
X71533333Y-103066666D01*
X81316666Y-110866666D02*
X81550000Y-111566666D01*
X81783333Y-110866666D01*
X82416666Y-111500000D02*
X82383333Y-111533333D01*
X82283333Y-111566666D01*
X82216666Y-111566666D01*
X82116666Y-111533333D01*
X82050000Y-111466666D01*
X82016666Y-111400000D01*
X81983333Y-111266666D01*
X81983333Y-111166666D01*
X82016666Y-111033333D01*
X82050000Y-110966666D01*
X82116666Y-110900000D01*
X82216666Y-110866666D01*
X82283333Y-110866666D01*
X82383333Y-110900000D01*
X82416666Y-110933333D01*
X83116666Y-111500000D02*
X83083333Y-111533333D01*
X82983333Y-111566666D01*
X82916666Y-111566666D01*
X82816666Y-111533333D01*
X82750000Y-111466666D01*
X82716666Y-111400000D01*
X82683333Y-111266666D01*
X82683333Y-111166666D01*
X82716666Y-111033333D01*
X82750000Y-110966666D01*
X82816666Y-110900000D01*
X82916666Y-110866666D01*
X82983333Y-110866666D01*
X83083333Y-110900000D01*
X83116666Y-110933333D01*
D10*
X71250000Y-145178571D02*
X71250000Y-143678571D01*
X71750000Y-144750000D01*
X72250000Y-143678571D01*
X72250000Y-145178571D01*
X72964285Y-145178571D02*
X72964285Y-143678571D01*
X73107142Y-144607142D02*
X73535714Y-145178571D01*
X73535714Y-144178571D02*
X72964285Y-144750000D01*
X74178571Y-145035714D02*
X74250000Y-145107142D01*
X74178571Y-145178571D01*
X74107142Y-145107142D01*
X74178571Y-145035714D01*
X74178571Y-145178571D01*
X76035714Y-145178571D02*
X76035714Y-143678571D01*
X76750000Y-145178571D02*
X76750000Y-143678571D01*
D11*
X86466666Y-110900000D02*
X86400000Y-110866666D01*
X86300000Y-110866666D01*
X86200000Y-110900000D01*
X86133333Y-110966666D01*
X86100000Y-111033333D01*
X86066666Y-111166666D01*
X86066666Y-111266666D01*
X86100000Y-111400000D01*
X86133333Y-111466666D01*
X86200000Y-111533333D01*
X86300000Y-111566666D01*
X86366666Y-111566666D01*
X86466666Y-111533333D01*
X86500000Y-111500000D01*
X86500000Y-111266666D01*
X86366666Y-111266666D01*
X86800000Y-111566666D02*
X86800000Y-110866666D01*
X87200000Y-111566666D01*
X87200000Y-110866666D01*
X87533333Y-111566666D02*
X87533333Y-110866666D01*
X87700000Y-110866666D01*
X87800000Y-110900000D01*
X87866666Y-110966666D01*
X87900000Y-111033333D01*
X87933333Y-111166666D01*
X87933333Y-111266666D01*
X87900000Y-111400000D01*
X87866666Y-111466666D01*
X87800000Y-111533333D01*
X87700000Y-111566666D01*
X87533333Y-111566666D01*
X86966666Y-102400000D02*
X86900000Y-102366666D01*
X86800000Y-102366666D01*
X86700000Y-102400000D01*
X86633333Y-102466666D01*
X86600000Y-102533333D01*
X86566666Y-102666666D01*
X86566666Y-102766666D01*
X86600000Y-102900000D01*
X86633333Y-102966666D01*
X86700000Y-103033333D01*
X86800000Y-103066666D01*
X86866666Y-103066666D01*
X86966666Y-103033333D01*
X87000000Y-103000000D01*
X87000000Y-102766666D01*
X86866666Y-102766666D01*
X87300000Y-103066666D02*
X87300000Y-102366666D01*
X87700000Y-103066666D01*
X87700000Y-102366666D01*
X88033333Y-103066666D02*
X88033333Y-102366666D01*
X88200000Y-102366666D01*
X88300000Y-102400000D01*
X88366666Y-102466666D01*
X88400000Y-102533333D01*
X88433333Y-102666666D01*
X88433333Y-102766666D01*
X88400000Y-102900000D01*
X88366666Y-102966666D01*
X88300000Y-103033333D01*
X88200000Y-103066666D01*
X88033333Y-103066666D01*
X74285714Y-98992857D02*
X74371428Y-99021428D01*
X74514285Y-99021428D01*
X74571428Y-98992857D01*
X74600000Y-98964285D01*
X74628571Y-98907142D01*
X74628571Y-98850000D01*
X74600000Y-98792857D01*
X74571428Y-98764285D01*
X74514285Y-98735714D01*
X74400000Y-98707142D01*
X74342857Y-98678571D01*
X74314285Y-98650000D01*
X74285714Y-98592857D01*
X74285714Y-98535714D01*
X74314285Y-98478571D01*
X74342857Y-98450000D01*
X74400000Y-98421428D01*
X74542857Y-98421428D01*
X74628571Y-98450000D01*
X75228571Y-98964285D02*
X75200000Y-98992857D01*
X75114285Y-99021428D01*
X75057142Y-99021428D01*
X74971428Y-98992857D01*
X74914285Y-98935714D01*
X74885714Y-98878571D01*
X74857142Y-98764285D01*
X74857142Y-98678571D01*
X74885714Y-98564285D01*
X74914285Y-98507142D01*
X74971428Y-98450000D01*
X75057142Y-98421428D01*
X75114285Y-98421428D01*
X75200000Y-98450000D01*
X75228571Y-98478571D01*
X75771428Y-99021428D02*
X75485714Y-99021428D01*
X75485714Y-98421428D01*
X83900000Y-108021428D02*
X83700000Y-107735714D01*
X83557142Y-108021428D02*
X83557142Y-107421428D01*
X83785714Y-107421428D01*
X83842857Y-107450000D01*
X83871428Y-107478571D01*
X83900000Y-107535714D01*
X83900000Y-107621428D01*
X83871428Y-107678571D01*
X83842857Y-107707142D01*
X83785714Y-107735714D01*
X83557142Y-107735714D01*
X84100000Y-107421428D02*
X84500000Y-108021428D01*
X84500000Y-107421428D02*
X84100000Y-108021428D01*
%TO.C,S1*%
X93238095Y-104654761D02*
X93380952Y-104702380D01*
X93619047Y-104702380D01*
X93714285Y-104654761D01*
X93761904Y-104607142D01*
X93809523Y-104511904D01*
X93809523Y-104416666D01*
X93761904Y-104321428D01*
X93714285Y-104273809D01*
X93619047Y-104226190D01*
X93428571Y-104178571D01*
X93333333Y-104130952D01*
X93285714Y-104083333D01*
X93238095Y-103988095D01*
X93238095Y-103892857D01*
X93285714Y-103797619D01*
X93333333Y-103750000D01*
X93428571Y-103702380D01*
X93666666Y-103702380D01*
X93809523Y-103750000D01*
X94761904Y-104702380D02*
X94190476Y-104702380D01*
X94476190Y-104702380D02*
X94476190Y-103702380D01*
X94380952Y-103845238D01*
X94285714Y-103940476D01*
X94190476Y-103988095D01*
%TO.C,C3*%
X105333333Y-112857142D02*
X105285714Y-112904761D01*
X105142857Y-112952380D01*
X105047619Y-112952380D01*
X104904761Y-112904761D01*
X104809523Y-112809523D01*
X104761904Y-112714285D01*
X104714285Y-112523809D01*
X104714285Y-112380952D01*
X104761904Y-112190476D01*
X104809523Y-112095238D01*
X104904761Y-112000000D01*
X105047619Y-111952380D01*
X105142857Y-111952380D01*
X105285714Y-112000000D01*
X105333333Y-112047619D01*
X105666666Y-111952380D02*
X106285714Y-111952380D01*
X105952380Y-112333333D01*
X106095238Y-112333333D01*
X106190476Y-112380952D01*
X106238095Y-112428571D01*
X106285714Y-112523809D01*
X106285714Y-112761904D01*
X106238095Y-112857142D01*
X106190476Y-112904761D01*
X106095238Y-112952380D01*
X105809523Y-112952380D01*
X105714285Y-112904761D01*
X105666666Y-112857142D01*
%TO.C,H4*%
X117738095Y-143952380D02*
X117738095Y-142952380D01*
X117738095Y-143428571D02*
X118309523Y-143428571D01*
X118309523Y-143952380D02*
X118309523Y-142952380D01*
X119214285Y-143285714D02*
X119214285Y-143952380D01*
X118976190Y-142904761D02*
X118738095Y-143619047D01*
X119357142Y-143619047D01*
%TO.C,R9*%
X92933333Y-107802380D02*
X92600000Y-107326190D01*
X92361904Y-107802380D02*
X92361904Y-106802380D01*
X92742857Y-106802380D01*
X92838095Y-106850000D01*
X92885714Y-106897619D01*
X92933333Y-106992857D01*
X92933333Y-107135714D01*
X92885714Y-107230952D01*
X92838095Y-107278571D01*
X92742857Y-107326190D01*
X92361904Y-107326190D01*
X93409523Y-107802380D02*
X93600000Y-107802380D01*
X93695238Y-107754761D01*
X93742857Y-107707142D01*
X93838095Y-107564285D01*
X93885714Y-107373809D01*
X93885714Y-106992857D01*
X93838095Y-106897619D01*
X93790476Y-106850000D01*
X93695238Y-106802380D01*
X93504761Y-106802380D01*
X93409523Y-106850000D01*
X93361904Y-106897619D01*
X93314285Y-106992857D01*
X93314285Y-107230952D01*
X93361904Y-107326190D01*
X93409523Y-107373809D01*
X93504761Y-107421428D01*
X93695238Y-107421428D01*
X93790476Y-107373809D01*
X93838095Y-107326190D01*
X93885714Y-107230952D01*
%TO.C,R8*%
X77783333Y-111402380D02*
X77450000Y-110926190D01*
X77211904Y-111402380D02*
X77211904Y-110402380D01*
X77592857Y-110402380D01*
X77688095Y-110450000D01*
X77735714Y-110497619D01*
X77783333Y-110592857D01*
X77783333Y-110735714D01*
X77735714Y-110830952D01*
X77688095Y-110878571D01*
X77592857Y-110926190D01*
X77211904Y-110926190D01*
X78354761Y-110830952D02*
X78259523Y-110783333D01*
X78211904Y-110735714D01*
X78164285Y-110640476D01*
X78164285Y-110592857D01*
X78211904Y-110497619D01*
X78259523Y-110450000D01*
X78354761Y-110402380D01*
X78545238Y-110402380D01*
X78640476Y-110450000D01*
X78688095Y-110497619D01*
X78735714Y-110592857D01*
X78735714Y-110640476D01*
X78688095Y-110735714D01*
X78640476Y-110783333D01*
X78545238Y-110830952D01*
X78354761Y-110830952D01*
X78259523Y-110878571D01*
X78211904Y-110926190D01*
X78164285Y-111021428D01*
X78164285Y-111211904D01*
X78211904Y-111307142D01*
X78259523Y-111354761D01*
X78354761Y-111402380D01*
X78545238Y-111402380D01*
X78640476Y-111354761D01*
X78688095Y-111307142D01*
X78735714Y-111211904D01*
X78735714Y-111021428D01*
X78688095Y-110926190D01*
X78640476Y-110878571D01*
X78545238Y-110830952D01*
%TO.C,U2*%
X102738095Y-125452380D02*
X102738095Y-126261904D01*
X102785714Y-126357142D01*
X102833333Y-126404761D01*
X102928571Y-126452380D01*
X103119047Y-126452380D01*
X103214285Y-126404761D01*
X103261904Y-126357142D01*
X103309523Y-126261904D01*
X103309523Y-125452380D01*
X103738095Y-125547619D02*
X103785714Y-125500000D01*
X103880952Y-125452380D01*
X104119047Y-125452380D01*
X104214285Y-125500000D01*
X104261904Y-125547619D01*
X104309523Y-125642857D01*
X104309523Y-125738095D01*
X104261904Y-125880952D01*
X103690476Y-126452380D01*
X104309523Y-126452380D01*
%TO.C,R4*%
X123033333Y-115802380D02*
X122700000Y-115326190D01*
X122461904Y-115802380D02*
X122461904Y-114802380D01*
X122842857Y-114802380D01*
X122938095Y-114850000D01*
X122985714Y-114897619D01*
X123033333Y-114992857D01*
X123033333Y-115135714D01*
X122985714Y-115230952D01*
X122938095Y-115278571D01*
X122842857Y-115326190D01*
X122461904Y-115326190D01*
X123890476Y-115135714D02*
X123890476Y-115802380D01*
X123652380Y-114754761D02*
X123414285Y-115469047D01*
X124033333Y-115469047D01*
%TO.C,R6*%
X78333333Y-134952380D02*
X78000000Y-134476190D01*
X77761904Y-134952380D02*
X77761904Y-133952380D01*
X78142857Y-133952380D01*
X78238095Y-134000000D01*
X78285714Y-134047619D01*
X78333333Y-134142857D01*
X78333333Y-134285714D01*
X78285714Y-134380952D01*
X78238095Y-134428571D01*
X78142857Y-134476190D01*
X77761904Y-134476190D01*
X79190476Y-133952380D02*
X79000000Y-133952380D01*
X78904761Y-134000000D01*
X78857142Y-134047619D01*
X78761904Y-134190476D01*
X78714285Y-134380952D01*
X78714285Y-134761904D01*
X78761904Y-134857142D01*
X78809523Y-134904761D01*
X78904761Y-134952380D01*
X79095238Y-134952380D01*
X79190476Y-134904761D01*
X79238095Y-134857142D01*
X79285714Y-134761904D01*
X79285714Y-134523809D01*
X79238095Y-134428571D01*
X79190476Y-134380952D01*
X79095238Y-134333333D01*
X78904761Y-134333333D01*
X78809523Y-134380952D01*
X78761904Y-134428571D01*
X78714285Y-134523809D01*
%TO.C,C2*%
X104833333Y-118057142D02*
X104785714Y-118104761D01*
X104642857Y-118152380D01*
X104547619Y-118152380D01*
X104404761Y-118104761D01*
X104309523Y-118009523D01*
X104261904Y-117914285D01*
X104214285Y-117723809D01*
X104214285Y-117580952D01*
X104261904Y-117390476D01*
X104309523Y-117295238D01*
X104404761Y-117200000D01*
X104547619Y-117152380D01*
X104642857Y-117152380D01*
X104785714Y-117200000D01*
X104833333Y-117247619D01*
X105214285Y-117247619D02*
X105261904Y-117200000D01*
X105357142Y-117152380D01*
X105595238Y-117152380D01*
X105690476Y-117200000D01*
X105738095Y-117247619D01*
X105785714Y-117342857D01*
X105785714Y-117438095D01*
X105738095Y-117580952D01*
X105166666Y-118152380D01*
X105785714Y-118152380D01*
%TO.C,Q1*%
X94404761Y-127547619D02*
X94309523Y-127500000D01*
X94214285Y-127404761D01*
X94071428Y-127261904D01*
X93976190Y-127214285D01*
X93880952Y-127214285D01*
X93928571Y-127452380D02*
X93833333Y-127404761D01*
X93738095Y-127309523D01*
X93690476Y-127119047D01*
X93690476Y-126785714D01*
X93738095Y-126595238D01*
X93833333Y-126500000D01*
X93928571Y-126452380D01*
X94119047Y-126452380D01*
X94214285Y-126500000D01*
X94309523Y-126595238D01*
X94357142Y-126785714D01*
X94357142Y-127119047D01*
X94309523Y-127309523D01*
X94214285Y-127404761D01*
X94119047Y-127452380D01*
X93928571Y-127452380D01*
X95309523Y-127452380D02*
X94738095Y-127452380D01*
X95023809Y-127452380D02*
X95023809Y-126452380D01*
X94928571Y-126595238D01*
X94833333Y-126690476D01*
X94738095Y-126738095D01*
%TO.C,H3*%
X65238095Y-106702380D02*
X65238095Y-105702380D01*
X65238095Y-106178571D02*
X65809523Y-106178571D01*
X65809523Y-106702380D02*
X65809523Y-105702380D01*
X66190476Y-105702380D02*
X66809523Y-105702380D01*
X66476190Y-106083333D01*
X66619047Y-106083333D01*
X66714285Y-106130952D01*
X66761904Y-106178571D01*
X66809523Y-106273809D01*
X66809523Y-106511904D01*
X66761904Y-106607142D01*
X66714285Y-106654761D01*
X66619047Y-106702380D01*
X66333333Y-106702380D01*
X66238095Y-106654761D01*
X66190476Y-106607142D01*
%TO.C,H2*%
X117738095Y-101702380D02*
X117738095Y-100702380D01*
X117738095Y-101178571D02*
X118309523Y-101178571D01*
X118309523Y-101702380D02*
X118309523Y-100702380D01*
X118738095Y-100797619D02*
X118785714Y-100750000D01*
X118880952Y-100702380D01*
X119119047Y-100702380D01*
X119214285Y-100750000D01*
X119261904Y-100797619D01*
X119309523Y-100892857D01*
X119309523Y-100988095D01*
X119261904Y-101130952D01*
X118690476Y-101702380D01*
X119309523Y-101702380D01*
%TO.C,C1*%
X105333333Y-114857142D02*
X105285714Y-114904761D01*
X105142857Y-114952380D01*
X105047619Y-114952380D01*
X104904761Y-114904761D01*
X104809523Y-114809523D01*
X104761904Y-114714285D01*
X104714285Y-114523809D01*
X104714285Y-114380952D01*
X104761904Y-114190476D01*
X104809523Y-114095238D01*
X104904761Y-114000000D01*
X105047619Y-113952380D01*
X105142857Y-113952380D01*
X105285714Y-114000000D01*
X105333333Y-114047619D01*
X106285714Y-114952380D02*
X105714285Y-114952380D01*
X106000000Y-114952380D02*
X106000000Y-113952380D01*
X105904761Y-114095238D01*
X105809523Y-114190476D01*
X105714285Y-114238095D01*
%TO.C,R7*%
X69383333Y-110052380D02*
X69050000Y-109576190D01*
X68811904Y-110052380D02*
X68811904Y-109052380D01*
X69192857Y-109052380D01*
X69288095Y-109100000D01*
X69335714Y-109147619D01*
X69383333Y-109242857D01*
X69383333Y-109385714D01*
X69335714Y-109480952D01*
X69288095Y-109528571D01*
X69192857Y-109576190D01*
X68811904Y-109576190D01*
X69716666Y-109052380D02*
X70383333Y-109052380D01*
X69954761Y-110052380D01*
%TO.C,C4*%
X104858333Y-119557142D02*
X104810714Y-119604761D01*
X104667857Y-119652380D01*
X104572619Y-119652380D01*
X104429761Y-119604761D01*
X104334523Y-119509523D01*
X104286904Y-119414285D01*
X104239285Y-119223809D01*
X104239285Y-119080952D01*
X104286904Y-118890476D01*
X104334523Y-118795238D01*
X104429761Y-118700000D01*
X104572619Y-118652380D01*
X104667857Y-118652380D01*
X104810714Y-118700000D01*
X104858333Y-118747619D01*
X105715476Y-118985714D02*
X105715476Y-119652380D01*
X105477380Y-118604761D02*
X105239285Y-119319047D01*
X105858333Y-119319047D01*
%TO.C,H1*%
X65238095Y-139702380D02*
X65238095Y-138702380D01*
X65238095Y-139178571D02*
X65809523Y-139178571D01*
X65809523Y-139702380D02*
X65809523Y-138702380D01*
X66809523Y-139702380D02*
X66238095Y-139702380D01*
X66523809Y-139702380D02*
X66523809Y-138702380D01*
X66428571Y-138845238D01*
X66333333Y-138940476D01*
X66238095Y-138988095D01*
%TO.C,R5*%
X79233333Y-104502380D02*
X78900000Y-104026190D01*
X78661904Y-104502380D02*
X78661904Y-103502380D01*
X79042857Y-103502380D01*
X79138095Y-103550000D01*
X79185714Y-103597619D01*
X79233333Y-103692857D01*
X79233333Y-103835714D01*
X79185714Y-103930952D01*
X79138095Y-103978571D01*
X79042857Y-104026190D01*
X78661904Y-104026190D01*
X80138095Y-103502380D02*
X79661904Y-103502380D01*
X79614285Y-103978571D01*
X79661904Y-103930952D01*
X79757142Y-103883333D01*
X79995238Y-103883333D01*
X80090476Y-103930952D01*
X80138095Y-103978571D01*
X80185714Y-104073809D01*
X80185714Y-104311904D01*
X80138095Y-104407142D01*
X80090476Y-104454761D01*
X79995238Y-104502380D01*
X79757142Y-104502380D01*
X79661904Y-104454761D01*
X79614285Y-104407142D01*
%TO.C,D1*%
X123061904Y-111802380D02*
X123061904Y-110802380D01*
X123300000Y-110802380D01*
X123442857Y-110850000D01*
X123538095Y-110945238D01*
X123585714Y-111040476D01*
X123633333Y-111230952D01*
X123633333Y-111373809D01*
X123585714Y-111564285D01*
X123538095Y-111659523D01*
X123442857Y-111754761D01*
X123300000Y-111802380D01*
X123061904Y-111802380D01*
X124585714Y-111802380D02*
X124014285Y-111802380D01*
X124300000Y-111802380D02*
X124300000Y-110802380D01*
X124204761Y-110945238D01*
X124109523Y-111040476D01*
X124014285Y-111088095D01*
%TO.C,C5*%
X110083333Y-128857142D02*
X110035714Y-128904761D01*
X109892857Y-128952380D01*
X109797619Y-128952380D01*
X109654761Y-128904761D01*
X109559523Y-128809523D01*
X109511904Y-128714285D01*
X109464285Y-128523809D01*
X109464285Y-128380952D01*
X109511904Y-128190476D01*
X109559523Y-128095238D01*
X109654761Y-128000000D01*
X109797619Y-127952380D01*
X109892857Y-127952380D01*
X110035714Y-128000000D01*
X110083333Y-128047619D01*
X110988095Y-127952380D02*
X110511904Y-127952380D01*
X110464285Y-128428571D01*
X110511904Y-128380952D01*
X110607142Y-128333333D01*
X110845238Y-128333333D01*
X110940476Y-128380952D01*
X110988095Y-128428571D01*
X111035714Y-128523809D01*
X111035714Y-128761904D01*
X110988095Y-128857142D01*
X110940476Y-128904761D01*
X110845238Y-128952380D01*
X110607142Y-128952380D01*
X110511904Y-128904761D01*
X110464285Y-128857142D01*
%TO.C,C7*%
X70383333Y-137907142D02*
X70335714Y-137954761D01*
X70192857Y-138002380D01*
X70097619Y-138002380D01*
X69954761Y-137954761D01*
X69859523Y-137859523D01*
X69811904Y-137764285D01*
X69764285Y-137573809D01*
X69764285Y-137430952D01*
X69811904Y-137240476D01*
X69859523Y-137145238D01*
X69954761Y-137050000D01*
X70097619Y-137002380D01*
X70192857Y-137002380D01*
X70335714Y-137050000D01*
X70383333Y-137097619D01*
X70716666Y-137002380D02*
X71383333Y-137002380D01*
X70954761Y-138002380D01*
%TO.C,R3*%
X113333333Y-117202380D02*
X113000000Y-116726190D01*
X112761904Y-117202380D02*
X112761904Y-116202380D01*
X113142857Y-116202380D01*
X113238095Y-116250000D01*
X113285714Y-116297619D01*
X113333333Y-116392857D01*
X113333333Y-116535714D01*
X113285714Y-116630952D01*
X113238095Y-116678571D01*
X113142857Y-116726190D01*
X112761904Y-116726190D01*
X113666666Y-116202380D02*
X114285714Y-116202380D01*
X113952380Y-116583333D01*
X114095238Y-116583333D01*
X114190476Y-116630952D01*
X114238095Y-116678571D01*
X114285714Y-116773809D01*
X114285714Y-117011904D01*
X114238095Y-117107142D01*
X114190476Y-117154761D01*
X114095238Y-117202380D01*
X113809523Y-117202380D01*
X113714285Y-117154761D01*
X113666666Y-117107142D01*
%TO.C,J1*%
X119952380Y-122083333D02*
X120666666Y-122083333D01*
X120809523Y-122130952D01*
X120904761Y-122226190D01*
X120952380Y-122369047D01*
X120952380Y-122464285D01*
X120952380Y-121083333D02*
X120952380Y-121654761D01*
X120952380Y-121369047D02*
X119952380Y-121369047D01*
X120095238Y-121464285D01*
X120190476Y-121559523D01*
X120238095Y-121654761D01*
%TO.C,C6*%
X78333333Y-136357142D02*
X78285714Y-136404761D01*
X78142857Y-136452380D01*
X78047619Y-136452380D01*
X77904761Y-136404761D01*
X77809523Y-136309523D01*
X77761904Y-136214285D01*
X77714285Y-136023809D01*
X77714285Y-135880952D01*
X77761904Y-135690476D01*
X77809523Y-135595238D01*
X77904761Y-135500000D01*
X78047619Y-135452380D01*
X78142857Y-135452380D01*
X78285714Y-135500000D01*
X78333333Y-135547619D01*
X79190476Y-135452380D02*
X79000000Y-135452380D01*
X78904761Y-135500000D01*
X78857142Y-135547619D01*
X78761904Y-135690476D01*
X78714285Y-135880952D01*
X78714285Y-136261904D01*
X78761904Y-136357142D01*
X78809523Y-136404761D01*
X78904761Y-136452380D01*
X79095238Y-136452380D01*
X79190476Y-136404761D01*
X79238095Y-136357142D01*
X79285714Y-136261904D01*
X79285714Y-136023809D01*
X79238095Y-135928571D01*
X79190476Y-135880952D01*
X79095238Y-135833333D01*
X78904761Y-135833333D01*
X78809523Y-135880952D01*
X78761904Y-135928571D01*
X78714285Y-136023809D01*
%TO.C,D2*%
X89861904Y-107802380D02*
X89861904Y-106802380D01*
X90100000Y-106802380D01*
X90242857Y-106850000D01*
X90338095Y-106945238D01*
X90385714Y-107040476D01*
X90433333Y-107230952D01*
X90433333Y-107373809D01*
X90385714Y-107564285D01*
X90338095Y-107659523D01*
X90242857Y-107754761D01*
X90100000Y-107802380D01*
X89861904Y-107802380D01*
X90814285Y-106897619D02*
X90861904Y-106850000D01*
X90957142Y-106802380D01*
X91195238Y-106802380D01*
X91290476Y-106850000D01*
X91338095Y-106897619D01*
X91385714Y-106992857D01*
X91385714Y-107088095D01*
X91338095Y-107230952D01*
X90766666Y-107802380D01*
X91385714Y-107802380D01*
%TO.C,Q2*%
X94404761Y-119047619D02*
X94309523Y-119000000D01*
X94214285Y-118904761D01*
X94071428Y-118761904D01*
X93976190Y-118714285D01*
X93880952Y-118714285D01*
X93928571Y-118952380D02*
X93833333Y-118904761D01*
X93738095Y-118809523D01*
X93690476Y-118619047D01*
X93690476Y-118285714D01*
X93738095Y-118095238D01*
X93833333Y-118000000D01*
X93928571Y-117952380D01*
X94119047Y-117952380D01*
X94214285Y-118000000D01*
X94309523Y-118095238D01*
X94357142Y-118285714D01*
X94357142Y-118619047D01*
X94309523Y-118809523D01*
X94214285Y-118904761D01*
X94119047Y-118952380D01*
X93928571Y-118952380D01*
X94738095Y-118047619D02*
X94785714Y-118000000D01*
X94880952Y-117952380D01*
X95119047Y-117952380D01*
X95214285Y-118000000D01*
X95261904Y-118047619D01*
X95309523Y-118142857D01*
X95309523Y-118238095D01*
X95261904Y-118380952D01*
X94690476Y-118952380D01*
X95309523Y-118952380D01*
%TO.C,R2*%
X99333333Y-119952380D02*
X99000000Y-119476190D01*
X98761904Y-119952380D02*
X98761904Y-118952380D01*
X99142857Y-118952380D01*
X99238095Y-119000000D01*
X99285714Y-119047619D01*
X99333333Y-119142857D01*
X99333333Y-119285714D01*
X99285714Y-119380952D01*
X99238095Y-119428571D01*
X99142857Y-119476190D01*
X98761904Y-119476190D01*
X99714285Y-119047619D02*
X99761904Y-119000000D01*
X99857142Y-118952380D01*
X100095238Y-118952380D01*
X100190476Y-119000000D01*
X100238095Y-119047619D01*
X100285714Y-119142857D01*
X100285714Y-119238095D01*
X100238095Y-119380952D01*
X99666666Y-119952380D01*
X100285714Y-119952380D01*
%TO.C,R1*%
X99333333Y-125952380D02*
X99000000Y-125476190D01*
X98761904Y-125952380D02*
X98761904Y-124952380D01*
X99142857Y-124952380D01*
X99238095Y-125000000D01*
X99285714Y-125047619D01*
X99333333Y-125142857D01*
X99333333Y-125285714D01*
X99285714Y-125380952D01*
X99238095Y-125428571D01*
X99142857Y-125476190D01*
X98761904Y-125476190D01*
X100285714Y-125952380D02*
X99714285Y-125952380D01*
X100000000Y-125952380D02*
X100000000Y-124952380D01*
X99904761Y-125095238D01*
X99809523Y-125190476D01*
X99714285Y-125238095D01*
D12*
%TO.C,S1*%
X101950000Y-106350000D02*
X102200000Y-106350000D01*
X100050000Y-112650000D02*
X97450000Y-112650000D01*
X102200000Y-112650000D02*
X101950000Y-112650000D01*
X95550000Y-112650000D02*
X95300000Y-112650000D01*
X102200000Y-106350000D02*
X102200000Y-112650000D01*
X95300000Y-106350000D02*
X95550000Y-106350000D01*
X95300000Y-112650000D02*
X95300000Y-106350000D01*
X97450000Y-106350000D02*
X100050000Y-106350000D01*
%TO.C,C3*%
X108140580Y-113010000D02*
X107859420Y-113010000D01*
X108140580Y-111990000D02*
X107859420Y-111990000D01*
%TO.C,R9*%
X92577500Y-109362742D02*
X92577500Y-109837258D01*
X93622500Y-109362742D02*
X93622500Y-109837258D01*
%TO.C,R8*%
X77737258Y-108977500D02*
X77262742Y-108977500D01*
X77737258Y-110022500D02*
X77262742Y-110022500D01*
%TO.C,U2*%
X104640000Y-121140000D02*
X104640000Y-121615000D01*
X105115000Y-121140000D02*
X104640000Y-121140000D01*
X104640000Y-125360000D02*
X104640000Y-124885000D01*
X108385000Y-125360000D02*
X108860000Y-125360000D01*
X108860000Y-121140000D02*
X108860000Y-121615000D01*
X108385000Y-121140000D02*
X108860000Y-121140000D01*
X105115000Y-125360000D02*
X104640000Y-125360000D01*
%TO.C,R4*%
X120977500Y-115012742D02*
X120977500Y-115487258D01*
X122022500Y-115012742D02*
X122022500Y-115487258D01*
%TO.C,R6*%
X75762742Y-135022500D02*
X76237258Y-135022500D01*
X75762742Y-133977500D02*
X76237258Y-133977500D01*
%TO.C,C2*%
X107915580Y-118210000D02*
X107634420Y-118210000D01*
X107915580Y-117190000D02*
X107634420Y-117190000D01*
%TO.C,Q1*%
X95500000Y-122940000D02*
X94850000Y-122940000D01*
X95500000Y-122940000D02*
X96150000Y-122940000D01*
X95500000Y-126060000D02*
X94850000Y-126060000D01*
X95500000Y-126060000D02*
X97175000Y-126060000D01*
%TO.C,U1*%
X104590000Y-105090000D02*
X105850000Y-105090000D01*
X111410000Y-108850000D02*
X111410000Y-105090000D01*
X104590000Y-111100000D02*
X104590000Y-105090000D01*
X111410000Y-105090000D02*
X110150000Y-105090000D01*
%TO.C,J2*%
X87260000Y-99390000D02*
X87260000Y-100500000D01*
X86500000Y-99390000D02*
X87260000Y-99390000D01*
X79455000Y-100807530D02*
X79455000Y-101610000D01*
X85740000Y-99390000D02*
X79455000Y-99390000D01*
X85740000Y-99390000D02*
X85740000Y-99936529D01*
X85740000Y-101610000D02*
X79455000Y-101610000D01*
X79455000Y-99390000D02*
X79455000Y-100192470D01*
X85740000Y-101063471D02*
X85740000Y-101610000D01*
%TO.C,C1*%
X108140580Y-115010000D02*
X107859420Y-115010000D01*
X108140580Y-113990000D02*
X107859420Y-113990000D01*
%TO.C,R7*%
X71762742Y-110022500D02*
X72237258Y-110022500D01*
X71762742Y-108977500D02*
X72237258Y-108977500D01*
%TO.C,G\u002A\u002A\u002A*%
G36*
X73167797Y-140471792D02*
G01*
X73232837Y-140529990D01*
X73304014Y-140597979D01*
X73377600Y-140671701D01*
X73449867Y-140747097D01*
X73517087Y-140820110D01*
X73575531Y-140886681D01*
X73621471Y-140942753D01*
X73651179Y-140984267D01*
X73660928Y-141007165D01*
X73660666Y-141008262D01*
X73653046Y-141020616D01*
X73638410Y-141027732D01*
X73611975Y-141029310D01*
X73568956Y-141025048D01*
X73504569Y-141014645D01*
X73414030Y-140997799D01*
X73375000Y-140990272D01*
X73289486Y-140974339D01*
X73187203Y-140956311D01*
X73073342Y-140937001D01*
X72953091Y-140917221D01*
X72831641Y-140897784D01*
X72714181Y-140879504D01*
X72605901Y-140863192D01*
X72511990Y-140849663D01*
X72437639Y-140839728D01*
X72388036Y-140834200D01*
X72372997Y-140833333D01*
X72325085Y-140841480D01*
X72290685Y-140857803D01*
X72248287Y-140877823D01*
X72219175Y-140882803D01*
X72200635Y-140881758D01*
X72189436Y-140873738D01*
X72184138Y-140852336D01*
X72183300Y-140811146D01*
X72185481Y-140743760D01*
X72185841Y-140734527D01*
X72191074Y-140653468D01*
X72202306Y-140590347D01*
X72223532Y-140542035D01*
X72258750Y-140505401D01*
X72311953Y-140477314D01*
X72387138Y-140454644D01*
X72488300Y-140434260D01*
X72590462Y-140417521D01*
X72684078Y-140403755D01*
X72780336Y-140391013D01*
X72866421Y-140380922D01*
X72917797Y-140375974D01*
X73043928Y-140365826D01*
X73167797Y-140471792D01*
G37*
G36*
X74977417Y-142053841D02*
G01*
X74992091Y-142010153D01*
X75018654Y-141973466D01*
X75025270Y-141966383D01*
X75092873Y-141917999D01*
X75177507Y-141890694D01*
X75267824Y-141888061D01*
X75271149Y-141888487D01*
X75358075Y-141914275D01*
X75422926Y-141964637D01*
X75464749Y-142038363D01*
X75482594Y-142134244D01*
X75483208Y-142158333D01*
X75473141Y-142253106D01*
X75441772Y-142324211D01*
X75387348Y-142374977D01*
X75361948Y-142388833D01*
X75290231Y-142410375D01*
X75208693Y-142416042D01*
X75130818Y-142406108D01*
X75073343Y-142383004D01*
X75015099Y-142326438D01*
X74979815Y-142247422D01*
X74968531Y-142148621D01*
X74969238Y-142131655D01*
X75134195Y-142131655D01*
X75135135Y-142190490D01*
X75145924Y-142240779D01*
X75150586Y-142251095D01*
X75179284Y-142274094D01*
X75224018Y-142283632D01*
X75269803Y-142278454D01*
X75296666Y-142263333D01*
X75311244Y-142230283D01*
X75316731Y-142178468D01*
X75313587Y-142121058D01*
X75302277Y-142071223D01*
X75289083Y-142047145D01*
X75245774Y-142020906D01*
X75196248Y-142021325D01*
X75159523Y-142042857D01*
X75142520Y-142077901D01*
X75134195Y-142131655D01*
X74969238Y-142131655D01*
X74969821Y-142117658D01*
X74977417Y-142053841D01*
G37*
G36*
X74354257Y-139845346D02*
G01*
X74370446Y-139897511D01*
X74372947Y-139911118D01*
X74380762Y-140010445D01*
X74365374Y-140091111D01*
X74325013Y-140159985D01*
X74302408Y-140184846D01*
X74270087Y-140214154D01*
X74235072Y-140238174D01*
X74194089Y-140257242D01*
X74143868Y-140271693D01*
X74081137Y-140281862D01*
X74002622Y-140288086D01*
X73905052Y-140290700D01*
X73785156Y-140290040D01*
X73639660Y-140286440D01*
X73465294Y-140280238D01*
X73398350Y-140277575D01*
X73249346Y-140271285D01*
X73130459Y-140265360D01*
X73038488Y-140259147D01*
X72970232Y-140251989D01*
X72922489Y-140243232D01*
X72892058Y-140232220D01*
X72875739Y-140218299D01*
X72870331Y-140200813D01*
X72872632Y-140179107D01*
X72874665Y-140170398D01*
X72903012Y-140108143D01*
X72952017Y-140046381D01*
X73010054Y-139998936D01*
X73026056Y-139990146D01*
X73045009Y-139983108D01*
X73070569Y-139977625D01*
X73106387Y-139973502D01*
X73156117Y-139970545D01*
X73223412Y-139968558D01*
X73311925Y-139967346D01*
X73425310Y-139966714D01*
X73567219Y-139966468D01*
X73618633Y-139966439D01*
X73752884Y-139966120D01*
X73877494Y-139965320D01*
X73988282Y-139964104D01*
X74081068Y-139962538D01*
X74151673Y-139960689D01*
X74195916Y-139958622D01*
X74208711Y-139957152D01*
X74237616Y-139937362D01*
X74267985Y-139899271D01*
X74275411Y-139886546D01*
X74306738Y-139839864D01*
X74333021Y-139826131D01*
X74354257Y-139845346D01*
G37*
G36*
X74445564Y-140622470D02*
G01*
X74538727Y-140636880D01*
X74661585Y-140660655D01*
X74814852Y-140693921D01*
X74999243Y-140736807D01*
X75009231Y-140739191D01*
X75123735Y-140766399D01*
X75233127Y-140792102D01*
X75331323Y-140814892D01*
X75412238Y-140833362D01*
X75469788Y-140846105D01*
X75487488Y-140849807D01*
X75558487Y-140867936D01*
X75602303Y-140891991D01*
X75625078Y-140928607D01*
X75632955Y-140984415D01*
X75633333Y-141007284D01*
X75623725Y-141085940D01*
X75597631Y-141167542D01*
X75559150Y-141245669D01*
X75512377Y-141313901D01*
X75461411Y-141365820D01*
X75410346Y-141395005D01*
X75383333Y-141399029D01*
X75358545Y-141392170D01*
X75310873Y-141374263D01*
X75247707Y-141348211D01*
X75191666Y-141323760D01*
X75129056Y-141294764D01*
X75043370Y-141253589D01*
X74941106Y-141203436D01*
X74828759Y-141147508D01*
X74712827Y-141089006D01*
X74641666Y-141052677D01*
X74523810Y-140991922D01*
X74432446Y-140943938D01*
X74364221Y-140906654D01*
X74315782Y-140877998D01*
X74283776Y-140855897D01*
X74264849Y-140838280D01*
X74255648Y-140823074D01*
X74253181Y-140812608D01*
X74257944Y-140769082D01*
X74276590Y-140716041D01*
X74303288Y-140665574D01*
X74332209Y-140629775D01*
X74345461Y-140621237D01*
X74381380Y-140617298D01*
X74445564Y-140622470D01*
G37*
G36*
X72927578Y-139121997D02*
G01*
X72945083Y-139124004D01*
X72960619Y-139144909D01*
X72966666Y-139180866D01*
X72960943Y-139213808D01*
X72940053Y-139234585D01*
X72898415Y-139245692D01*
X72830445Y-139249625D01*
X72812500Y-139249772D01*
X72764280Y-139251726D01*
X72740814Y-139259791D01*
X72733599Y-139277822D01*
X72733333Y-139285648D01*
X72735775Y-139305160D01*
X72748251Y-139314713D01*
X72778486Y-139316358D01*
X72833333Y-139312228D01*
X72933333Y-139303160D01*
X72933333Y-139431669D01*
X72837500Y-139436668D01*
X72782834Y-139441017D01*
X72753832Y-139448803D01*
X72742826Y-139463092D01*
X72741666Y-139475000D01*
X72744173Y-139491663D01*
X72756244Y-139501065D01*
X72784701Y-139504655D01*
X72836367Y-139503880D01*
X72870833Y-139502409D01*
X73000000Y-139496485D01*
X73000000Y-139556258D01*
X72999182Y-139583687D01*
X72993386Y-139603244D01*
X72977599Y-139616690D01*
X72946807Y-139625786D01*
X72895997Y-139632292D01*
X72820156Y-139637968D01*
X72755813Y-139642000D01*
X72586626Y-139652437D01*
X72574874Y-139488718D01*
X72569341Y-139405404D01*
X72564607Y-139322766D01*
X72561418Y-139254297D01*
X72560727Y-139233333D01*
X72558333Y-139141666D01*
X72740916Y-139128694D01*
X72817092Y-139124137D01*
X72881914Y-139121844D01*
X72927578Y-139121997D01*
G37*
G36*
X72470417Y-139412500D02*
G01*
X72479072Y-139499098D01*
X72485723Y-139573173D01*
X72489896Y-139628772D01*
X72491114Y-139659946D01*
X72490545Y-139664454D01*
X72472106Y-139669858D01*
X72432144Y-139676315D01*
X72411617Y-139678844D01*
X72365972Y-139682547D01*
X72342941Y-139676254D01*
X72332089Y-139654298D01*
X72327461Y-139633140D01*
X72319657Y-139581814D01*
X72316666Y-139539583D01*
X72313344Y-139515368D01*
X72297535Y-139503730D01*
X72260472Y-139500170D01*
X72239513Y-139500000D01*
X72162361Y-139500000D01*
X72173437Y-139597901D01*
X72178695Y-139652836D01*
X72177185Y-139683435D01*
X72166738Y-139698376D01*
X72146423Y-139706007D01*
X72098047Y-139714582D01*
X72053355Y-139715594D01*
X72023250Y-139709417D01*
X72016666Y-139701589D01*
X72014915Y-139680314D01*
X72010112Y-139632405D01*
X72002933Y-139564350D01*
X71994052Y-139482640D01*
X71991221Y-139457014D01*
X71980806Y-139359911D01*
X71975565Y-139291063D01*
X71976968Y-139245602D01*
X71986484Y-139218657D01*
X72005582Y-139205356D01*
X72035731Y-139200830D01*
X72068686Y-139200255D01*
X72104507Y-139201652D01*
X72123700Y-139211888D01*
X72133552Y-139239440D01*
X72140093Y-139283333D01*
X72149054Y-139334444D01*
X72164240Y-139359654D01*
X72194392Y-139364916D01*
X72247328Y-139356367D01*
X72278675Y-139348177D01*
X72292084Y-139333589D01*
X72292511Y-139302396D01*
X72288587Y-139271390D01*
X72285974Y-139215790D01*
X72300821Y-139183840D01*
X72338619Y-139169584D01*
X72384862Y-139166921D01*
X72444724Y-139166666D01*
X72470417Y-139412500D01*
G37*
G36*
X74304735Y-141953928D02*
G01*
X74333781Y-141966868D01*
X74339883Y-141976363D01*
X74343651Y-142002238D01*
X74346782Y-142054326D01*
X74348986Y-142125504D01*
X74349973Y-142208654D01*
X74350000Y-142224684D01*
X74350000Y-142446643D01*
X74272985Y-142452768D01*
X74225547Y-142453128D01*
X74195840Y-142446731D01*
X74191028Y-142441946D01*
X74188664Y-142419944D01*
X74185553Y-142371108D01*
X74182045Y-142301919D01*
X74178489Y-142218858D01*
X74177291Y-142187500D01*
X74168496Y-141950000D01*
X74249131Y-141950000D01*
X74304735Y-141953928D01*
G37*
G36*
X74607683Y-141156212D02*
G01*
X74799465Y-141258669D01*
X74961733Y-141346960D01*
X75095002Y-141421388D01*
X75199789Y-141482256D01*
X75276610Y-141529866D01*
X75325980Y-141564520D01*
X75348415Y-141586521D01*
X75350000Y-141591255D01*
X75338037Y-141627733D01*
X75308591Y-141671658D01*
X75271325Y-141711134D01*
X75235901Y-141734261D01*
X75233146Y-141735131D01*
X75202658Y-141739186D01*
X75145610Y-141742835D01*
X75068774Y-141745790D01*
X74978922Y-141747761D01*
X74923690Y-141748338D01*
X74655714Y-141750000D01*
X74573690Y-141696581D01*
X74536196Y-141667859D01*
X74481209Y-141620207D01*
X74413670Y-141558453D01*
X74338522Y-141487420D01*
X74260706Y-141411937D01*
X74185163Y-141336827D01*
X74116837Y-141266919D01*
X74060669Y-141207036D01*
X74021601Y-141162006D01*
X74009217Y-141145355D01*
X73991957Y-141115909D01*
X73990283Y-141093555D01*
X74006094Y-141065455D01*
X74024711Y-141040563D01*
X74066564Y-140996383D01*
X74113825Y-140960952D01*
X74124681Y-140955128D01*
X74179384Y-140929042D01*
X74607683Y-141156212D01*
G37*
G36*
X73138619Y-141064459D02*
G01*
X73228023Y-141069023D01*
X73345881Y-141077417D01*
X73391666Y-141080982D01*
X73567182Y-141099881D01*
X73711831Y-141126742D01*
X73827256Y-141162174D01*
X73915102Y-141206782D01*
X73977012Y-141261173D01*
X74007106Y-141308101D01*
X74024355Y-141346929D01*
X74033074Y-141371406D01*
X74033333Y-141373352D01*
X74027656Y-141380333D01*
X74008821Y-141381542D01*
X73974122Y-141376299D01*
X73920851Y-141363922D01*
X73846303Y-141343731D01*
X73747771Y-141315043D01*
X73622548Y-141277179D01*
X73495373Y-141237974D01*
X73342853Y-141190256D01*
X73221962Y-141151177D01*
X73132304Y-141120135D01*
X73073483Y-141096531D01*
X73045101Y-141079761D01*
X73046761Y-141069227D01*
X73078066Y-141064327D01*
X73138619Y-141064459D01*
G37*
G36*
X75721396Y-140169732D02*
G01*
X75747649Y-140227138D01*
X75761618Y-140305905D01*
X75764004Y-140396696D01*
X75755511Y-140490174D01*
X75736841Y-140577000D01*
X75708698Y-140647839D01*
X75682676Y-140683989D01*
X75667716Y-140697744D01*
X75651449Y-140707082D01*
X75629133Y-140711780D01*
X75596023Y-140711613D01*
X75547376Y-140706359D01*
X75478450Y-140695794D01*
X75384500Y-140679693D01*
X75308936Y-140666361D01*
X75200946Y-140646424D01*
X75072520Y-140621427D01*
X74935706Y-140593791D01*
X74802553Y-140565936D01*
X74719976Y-140548044D01*
X74397079Y-140476835D01*
X74402706Y-140314771D01*
X74406469Y-140243915D01*
X74411995Y-140185697D01*
X74418396Y-140148109D01*
X74422217Y-140138853D01*
X74441484Y-140135731D01*
X74490334Y-140132854D01*
X74565018Y-140130305D01*
X74661787Y-140128164D01*
X74776890Y-140126513D01*
X74906579Y-140125432D01*
X75047104Y-140125003D01*
X75062014Y-140125000D01*
X75687927Y-140125000D01*
X75721396Y-140169732D01*
G37*
G36*
X73403397Y-139099629D02*
G01*
X73466471Y-139131358D01*
X73511764Y-139176552D01*
X73532662Y-139232727D01*
X73533333Y-139245375D01*
X73529328Y-139269374D01*
X73511320Y-139280415D01*
X73470320Y-139283305D01*
X73462342Y-139283333D01*
X73409229Y-139278139D01*
X73378144Y-139260131D01*
X73370534Y-139250000D01*
X73337641Y-139224687D01*
X73291521Y-139216756D01*
X73248314Y-139227814D01*
X73236666Y-139236666D01*
X73222603Y-139268885D01*
X73216748Y-139320266D01*
X73218733Y-139377756D01*
X73228192Y-139428305D01*
X73242857Y-139457142D01*
X73285273Y-139480954D01*
X73332690Y-139481884D01*
X73372478Y-139461296D01*
X73386365Y-139441666D01*
X73404221Y-139414696D01*
X73432637Y-139402599D01*
X73477675Y-139400000D01*
X73526783Y-139405160D01*
X73548891Y-139423101D01*
X73545250Y-139457507D01*
X73517113Y-139512066D01*
X73516239Y-139513502D01*
X73465559Y-139566788D01*
X73394919Y-139601768D01*
X73313366Y-139616565D01*
X73229945Y-139609301D01*
X73167248Y-139585972D01*
X73106850Y-139536459D01*
X73066732Y-139468568D01*
X73046796Y-139389728D01*
X73046941Y-139307369D01*
X73067069Y-139228920D01*
X73107079Y-139161811D01*
X73166873Y-139113470D01*
X73173614Y-139110107D01*
X73250356Y-139086517D01*
X73329154Y-139083853D01*
X73403397Y-139099629D01*
G37*
G36*
X71519743Y-140332263D02*
G01*
X71537101Y-140108874D01*
X71559296Y-139879626D01*
X71585405Y-139652646D01*
X71614508Y-139436062D01*
X71645682Y-139238001D01*
X71672212Y-139094771D01*
X71692993Y-138991666D01*
X71883996Y-138964320D01*
X72488338Y-138890144D01*
X73093942Y-138840103D01*
X73695623Y-138814366D01*
X74288194Y-138813101D01*
X74866467Y-138836474D01*
X75158333Y-138858295D01*
X75307546Y-138871847D01*
X75459029Y-138886648D01*
X75608999Y-138902238D01*
X75753672Y-138918159D01*
X75889266Y-138933950D01*
X76011999Y-138949154D01*
X76118086Y-138963310D01*
X76203746Y-138975959D01*
X76265195Y-138986643D01*
X76298651Y-138994901D01*
X76303205Y-138997276D01*
X76309855Y-139016784D01*
X76320534Y-139063216D01*
X76334009Y-139130581D01*
X76349050Y-139212886D01*
X76356867Y-139258333D01*
X76417864Y-139662138D01*
X76460784Y-140046880D01*
X76485630Y-140419550D01*
X76492405Y-140787138D01*
X76481110Y-141156636D01*
X76451750Y-141535034D01*
X76404325Y-141929324D01*
X76357991Y-142233094D01*
X76342705Y-142322191D01*
X76328295Y-142399467D01*
X76315951Y-142459020D01*
X76306866Y-142494947D01*
X76303572Y-142502622D01*
X76283368Y-142508500D01*
X76234566Y-142517317D01*
X76161714Y-142528489D01*
X76069362Y-142541434D01*
X75962057Y-142555567D01*
X75844348Y-142570306D01*
X75720784Y-142585067D01*
X75595913Y-142599267D01*
X75474284Y-142612322D01*
X75360445Y-142623649D01*
X75358333Y-142623849D01*
X75027826Y-142650843D01*
X74682341Y-142671224D01*
X74333918Y-142684522D01*
X73994593Y-142690268D01*
X73700000Y-142688466D01*
X73544369Y-142683864D01*
X73365046Y-142675758D01*
X73171422Y-142664721D01*
X72972889Y-142651324D01*
X72778836Y-142636142D01*
X72641666Y-142623908D01*
X72528574Y-142612653D01*
X72407484Y-142599658D01*
X72282948Y-142585505D01*
X72159519Y-142570778D01*
X72041749Y-142556060D01*
X71934190Y-142541934D01*
X71841394Y-142528984D01*
X71767915Y-142517793D01*
X71718305Y-142508943D01*
X71697115Y-142503019D01*
X71696932Y-142502860D01*
X71690275Y-142482787D01*
X71679825Y-142434738D01*
X71666401Y-142363748D01*
X71650825Y-142274853D01*
X71633916Y-142173089D01*
X71616495Y-142063492D01*
X71599383Y-141951097D01*
X71583399Y-141840942D01*
X71569363Y-141738061D01*
X71559369Y-141658333D01*
X71542225Y-141492345D01*
X71527848Y-141310676D01*
X71516644Y-141122221D01*
X71509022Y-140935875D01*
X71505391Y-140760532D01*
X71506157Y-140605087D01*
X71506860Y-140582625D01*
X71619146Y-140582625D01*
X71619246Y-140782580D01*
X71623436Y-140989737D01*
X71631510Y-141195496D01*
X71643260Y-141391259D01*
X71658480Y-141568425D01*
X71665632Y-141633333D01*
X71677580Y-141728698D01*
X71691780Y-141833723D01*
X71707425Y-141943264D01*
X71723706Y-142052178D01*
X71739814Y-142155320D01*
X71754940Y-142247546D01*
X71768275Y-142323713D01*
X71779010Y-142378677D01*
X71786338Y-142407294D01*
X71787750Y-142409973D01*
X71808356Y-142415975D01*
X71858254Y-142424407D01*
X71933526Y-142434860D01*
X72030251Y-142446929D01*
X72144509Y-142460206D01*
X72272382Y-142474285D01*
X72409949Y-142488759D01*
X72553290Y-142503220D01*
X72698486Y-142517264D01*
X72841618Y-142530481D01*
X72978765Y-142542466D01*
X73106008Y-142552813D01*
X73219427Y-142561113D01*
X73283333Y-142565186D01*
X73414088Y-142571237D01*
X73569835Y-142575750D01*
X73742917Y-142578718D01*
X73925671Y-142580135D01*
X74110440Y-142579993D01*
X74289563Y-142578286D01*
X74455381Y-142575007D01*
X74600233Y-142570150D01*
X74675000Y-142566411D01*
X74791919Y-142558855D01*
X74922900Y-142549174D01*
X75064149Y-142537752D01*
X75211870Y-142524977D01*
X75362266Y-142511233D01*
X75511543Y-142496908D01*
X75655905Y-142482386D01*
X75791556Y-142468055D01*
X75914700Y-142454299D01*
X76021543Y-142441506D01*
X76108289Y-142430060D01*
X76171141Y-142420349D01*
X76206306Y-142412757D01*
X76212132Y-142410090D01*
X76218055Y-142390714D01*
X76227709Y-142343702D01*
X76240216Y-142274433D01*
X76254698Y-142188283D01*
X76270277Y-142090631D01*
X76286076Y-141986854D01*
X76301216Y-141882329D01*
X76314821Y-141782435D01*
X76315791Y-141775000D01*
X76361561Y-141328671D01*
X76381783Y-140885699D01*
X76376330Y-140440574D01*
X76345076Y-139987786D01*
X76287894Y-139521822D01*
X76260014Y-139344213D01*
X76245318Y-139257576D01*
X76232096Y-139183328D01*
X76221444Y-139127343D01*
X76214458Y-139095497D01*
X76212698Y-139090476D01*
X76194276Y-139086154D01*
X76147461Y-139078853D01*
X76077007Y-139069144D01*
X75987665Y-139057601D01*
X75884187Y-139044792D01*
X75771325Y-139031291D01*
X75653831Y-139017667D01*
X75536458Y-139004494D01*
X75423957Y-138992341D01*
X75321080Y-138981780D01*
X75258333Y-138975733D01*
X74720554Y-138936506D01*
X74181654Y-138919158D01*
X73636541Y-138923797D01*
X73080124Y-138950530D01*
X72507314Y-138999466D01*
X72134259Y-139041927D01*
X72031697Y-139054890D01*
X71940969Y-139066778D01*
X71867062Y-139076904D01*
X71814963Y-139084580D01*
X71789655Y-139089117D01*
X71788073Y-139089703D01*
X71780221Y-139111690D01*
X71769385Y-139162360D01*
X71756170Y-139237258D01*
X71741182Y-139331929D01*
X71725026Y-139441916D01*
X71708307Y-139562763D01*
X71691629Y-139690016D01*
X71675598Y-139819217D01*
X71660819Y-139945912D01*
X71647898Y-140065644D01*
X71637438Y-140173959D01*
X71632048Y-140238714D01*
X71623344Y-140398470D01*
X71619146Y-140582625D01*
X71506860Y-140582625D01*
X71508143Y-140541666D01*
X71519743Y-140332263D01*
G37*
G36*
X74111835Y-140350299D02*
G01*
X74160347Y-140352342D01*
X74189126Y-140357843D01*
X74204971Y-140368516D01*
X74214684Y-140386077D01*
X74218536Y-140395833D01*
X74228861Y-140465558D01*
X74214187Y-140547072D01*
X74177753Y-140634450D01*
X74122797Y-140721765D01*
X74052558Y-140803093D01*
X73970273Y-140872507D01*
X73950903Y-140885573D01*
X73890737Y-140919456D01*
X73841867Y-140931874D01*
X73796486Y-140921274D01*
X73746787Y-140886105D01*
X73694203Y-140834570D01*
X73638113Y-140772547D01*
X73607273Y-140730256D01*
X73600988Y-140706507D01*
X73615323Y-140700000D01*
X73634225Y-140689470D01*
X73670094Y-140661653D01*
X73715717Y-140622205D01*
X73723201Y-140615410D01*
X73780187Y-140558207D01*
X73817001Y-140506245D01*
X73841975Y-140447479D01*
X73844254Y-140440410D01*
X73872754Y-140350000D01*
X74036789Y-140350000D01*
X74111835Y-140350299D01*
G37*
G36*
X75147626Y-139127023D02*
G01*
X75219922Y-139132962D01*
X75301798Y-139139850D01*
X75345833Y-139143627D01*
X75450000Y-139152653D01*
X75450000Y-139268903D01*
X75329166Y-139264977D01*
X75264304Y-139264217D01*
X75226008Y-139267915D01*
X75207677Y-139277212D01*
X75203359Y-139286704D01*
X75213808Y-139310788D01*
X75254844Y-139326411D01*
X75324656Y-139332947D01*
X75337500Y-139333105D01*
X75378413Y-139335367D01*
X75395921Y-139348063D01*
X75399940Y-139380671D01*
X75400000Y-139392845D01*
X75400000Y-139452357D01*
X75295833Y-139448036D01*
X75238455Y-139446732D01*
X75206357Y-139450313D01*
X75191596Y-139460966D01*
X75186608Y-139478148D01*
X75186966Y-139495940D01*
X75198791Y-139507514D01*
X75228631Y-139515375D01*
X75283033Y-139522027D01*
X75307441Y-139524380D01*
X75433333Y-139536177D01*
X75433333Y-139592105D01*
X75428306Y-139639501D01*
X75411613Y-139658655D01*
X75391666Y-139657278D01*
X75369047Y-139654301D01*
X75320753Y-139650036D01*
X75254389Y-139645103D01*
X75193819Y-139641120D01*
X75012639Y-139629851D01*
X75023338Y-139477425D01*
X75029520Y-139393656D01*
X75036340Y-139307908D01*
X75042539Y-139235892D01*
X75043811Y-139222222D01*
X75053585Y-139119445D01*
X75147626Y-139127023D01*
G37*
G36*
X72681195Y-141886055D02*
G01*
X72723820Y-141898129D01*
X72751230Y-141925413D01*
X72769048Y-141973765D01*
X72782898Y-142049045D01*
X72784030Y-142056582D01*
X72794574Y-142119538D01*
X72804735Y-142166675D01*
X72812877Y-142190886D01*
X72815325Y-142192495D01*
X72825224Y-142174996D01*
X72842976Y-142133633D01*
X72865401Y-142075998D01*
X72875096Y-142049735D01*
X72924725Y-141913243D01*
X73020345Y-141920159D01*
X73073041Y-141925067D01*
X73110289Y-141930597D01*
X73122070Y-141934371D01*
X73122803Y-141952753D01*
X73120478Y-141997868D01*
X73115530Y-142063301D01*
X73108395Y-142142635D01*
X73106869Y-142158333D01*
X73098766Y-142242046D01*
X73091900Y-142315470D01*
X73086936Y-142371310D01*
X73084539Y-142402273D01*
X73084447Y-142404166D01*
X73075959Y-142423659D01*
X73047267Y-142432139D01*
X73016143Y-142433333D01*
X72970184Y-142428506D01*
X72943571Y-142416106D01*
X72941360Y-142412500D01*
X72939345Y-142386489D01*
X72941181Y-142337622D01*
X72946461Y-142276101D01*
X72946982Y-142271289D01*
X72952191Y-142214552D01*
X72953847Y-142174925D01*
X72951686Y-142159796D01*
X72950962Y-142160148D01*
X72941381Y-142179332D01*
X72924501Y-142221600D01*
X72903683Y-142278454D01*
X72900030Y-142288858D01*
X72878232Y-142349393D01*
X72861641Y-142384992D01*
X72844718Y-142402271D01*
X72821922Y-142407848D01*
X72800002Y-142408333D01*
X72741671Y-142408333D01*
X72715531Y-142266666D01*
X72689392Y-142125000D01*
X72678029Y-142206492D01*
X72671030Y-142269121D01*
X72667029Y-142329014D01*
X72666666Y-142346187D01*
X72666666Y-142404388D01*
X72598623Y-142395262D01*
X72553872Y-142387492D01*
X72525117Y-142379221D01*
X72521423Y-142376979D01*
X72519550Y-142357989D01*
X72520573Y-142311928D01*
X72524203Y-142244905D01*
X72530153Y-142163028D01*
X72533283Y-142125578D01*
X72554299Y-141883333D01*
X72617731Y-141883333D01*
X72681195Y-141886055D01*
G37*
G36*
X75628969Y-139170192D02*
G01*
X75665785Y-139183088D01*
X75697802Y-139210952D01*
X75731476Y-139259151D01*
X75767147Y-139321813D01*
X75841666Y-139458333D01*
X75846507Y-139320833D01*
X75849254Y-139253485D01*
X75853281Y-139212767D01*
X75861023Y-139191997D01*
X75874913Y-139184490D01*
X75896507Y-139183560D01*
X75945679Y-139187430D01*
X75977762Y-139193470D01*
X75990683Y-139198241D01*
X76000058Y-139207417D01*
X76006015Y-139225151D01*
X76008683Y-139255598D01*
X76008190Y-139302910D01*
X76004664Y-139371243D01*
X75998233Y-139464749D01*
X75989664Y-139579166D01*
X75980489Y-139700000D01*
X75907295Y-139700000D01*
X75855373Y-139695740D01*
X75824134Y-139679899D01*
X75810092Y-139662500D01*
X75789966Y-139627440D01*
X75762403Y-139574992D01*
X75739569Y-139529166D01*
X75713674Y-139479736D01*
X75691909Y-139445130D01*
X75679861Y-139433333D01*
X75673574Y-139448643D01*
X75668914Y-139489162D01*
X75666731Y-139546775D01*
X75666666Y-139559246D01*
X75666666Y-139685159D01*
X75587500Y-139680079D01*
X75508333Y-139675000D01*
X75512801Y-139550000D01*
X75516596Y-139465317D01*
X75522001Y-139369978D01*
X75527036Y-139295833D01*
X75532466Y-139231023D01*
X75538526Y-139192600D01*
X75548089Y-139173693D01*
X75564023Y-139167431D01*
X75580901Y-139166894D01*
X75628969Y-139170192D01*
G37*
G36*
X73721689Y-140333498D02*
G01*
X73736567Y-140358774D01*
X73744523Y-140413202D01*
X73724328Y-140469042D01*
X73680024Y-140519083D01*
X73629015Y-140550516D01*
X73538970Y-140578458D01*
X73456139Y-140575778D01*
X73408333Y-140559869D01*
X73337467Y-140518038D01*
X73289836Y-140467750D01*
X73269741Y-140414047D01*
X73269790Y-140397343D01*
X73283114Y-140346384D01*
X73310882Y-140324534D01*
X73354395Y-140331397D01*
X73401346Y-140357246D01*
X73462548Y-140391575D01*
X73512653Y-140401362D01*
X73562928Y-140386781D01*
X73606848Y-140360416D01*
X73660563Y-140328236D01*
X73696746Y-140319290D01*
X73721689Y-140333498D01*
G37*
G36*
X74777674Y-141937600D02*
G01*
X74843596Y-141975780D01*
X74878557Y-142014964D01*
X74907880Y-142064589D01*
X74912774Y-142095248D01*
X74891576Y-142112322D01*
X74845833Y-142120856D01*
X74796919Y-142122750D01*
X74766422Y-142111935D01*
X74744443Y-142089273D01*
X74703088Y-142055961D01*
X74658107Y-142055516D01*
X74616666Y-142083333D01*
X74589351Y-142128745D01*
X74582076Y-142183028D01*
X74591910Y-142238188D01*
X74615921Y-142286234D01*
X74651178Y-142319172D01*
X74694748Y-142329010D01*
X74706066Y-142327058D01*
X74748181Y-142302442D01*
X74766843Y-142274534D01*
X74781303Y-142248805D01*
X74805922Y-142236676D01*
X74851480Y-142233365D01*
X74859727Y-142233333D01*
X74906396Y-142234406D01*
X74927377Y-142241145D01*
X74930313Y-142258832D01*
X74926054Y-142279166D01*
X74897029Y-142347701D01*
X74849783Y-142404378D01*
X74814465Y-142428415D01*
X74749034Y-142449659D01*
X74673680Y-142458567D01*
X74605972Y-142453409D01*
X74593655Y-142450155D01*
X74518333Y-142410357D01*
X74462559Y-142348043D01*
X74428709Y-142269268D01*
X74419163Y-142180088D01*
X74436295Y-142086557D01*
X74443348Y-142067323D01*
X74485706Y-142001653D01*
X74547859Y-141954938D01*
X74622265Y-141928086D01*
X74701383Y-141922004D01*
X74777674Y-141937600D01*
G37*
G36*
X74223389Y-139200297D02*
G01*
X74263151Y-139145567D01*
X74329179Y-139098559D01*
X74410699Y-139075032D01*
X74498805Y-139075749D01*
X74584594Y-139101475D01*
X74611063Y-139115695D01*
X74665982Y-139167130D01*
X74700562Y-139236923D01*
X74714995Y-139317171D01*
X74709472Y-139399971D01*
X74684184Y-139477420D01*
X74639322Y-139541616D01*
X74600024Y-139572334D01*
X74551947Y-139589033D01*
X74485962Y-139597980D01*
X74415627Y-139598768D01*
X74354497Y-139590993D01*
X74325000Y-139580550D01*
X74257314Y-139525584D01*
X74212253Y-139452639D01*
X74190874Y-139369152D01*
X74191436Y-139354655D01*
X74357443Y-139354655D01*
X74368106Y-139412748D01*
X74393680Y-139455820D01*
X74429942Y-139479283D01*
X74472670Y-139478545D01*
X74516666Y-139450000D01*
X74540475Y-139406599D01*
X74550515Y-139347107D01*
X74546409Y-139285879D01*
X74527782Y-139237272D01*
X74522416Y-139230479D01*
X74478531Y-139200875D01*
X74433521Y-139201302D01*
X74394070Y-139229381D01*
X74366861Y-139282736D01*
X74365913Y-139286131D01*
X74357443Y-139354655D01*
X74191436Y-139354655D01*
X74194233Y-139282559D01*
X74223389Y-139200297D01*
G37*
G36*
X73446537Y-141935602D02*
G01*
X73530825Y-141942623D01*
X73585665Y-141954715D01*
X73612851Y-141972199D01*
X73616666Y-141984235D01*
X73613027Y-142025259D01*
X73597777Y-142049999D01*
X73564421Y-142062419D01*
X73506463Y-142066483D01*
X73481550Y-142066666D01*
X73417302Y-142068446D01*
X73380946Y-142074494D01*
X73367192Y-142085871D01*
X73366666Y-142089722D01*
X73382446Y-142112645D01*
X73427829Y-142127405D01*
X73499878Y-142133077D01*
X73504166Y-142133105D01*
X73545085Y-142135392D01*
X73562597Y-142148034D01*
X73566610Y-142180316D01*
X73566666Y-142191666D01*
X73566666Y-142250000D01*
X73458333Y-142250000D01*
X73399705Y-142251038D01*
X73367018Y-142255666D01*
X73352907Y-142266149D01*
X73350000Y-142283333D01*
X73358326Y-142308186D01*
X73388779Y-142316487D01*
X73397673Y-142316666D01*
X73444341Y-142318991D01*
X73503427Y-142324806D01*
X73522673Y-142327265D01*
X73569616Y-142335229D01*
X73592259Y-142347193D01*
X73599438Y-142370775D01*
X73600000Y-142393932D01*
X73600000Y-142450000D01*
X73454166Y-142447198D01*
X73378403Y-142445107D01*
X73307126Y-142442053D01*
X73253086Y-142438608D01*
X73243352Y-142437710D01*
X73178372Y-142431025D01*
X73189110Y-142244679D01*
X73193551Y-142162121D01*
X73197112Y-142085475D01*
X73199360Y-142024722D01*
X73199924Y-141995833D01*
X73200000Y-141933333D01*
X73331007Y-141933333D01*
X73446537Y-141935602D01*
G37*
G36*
X73712500Y-139069920D02*
G01*
X73791666Y-139075000D01*
X73796736Y-139163414D01*
X73801805Y-139251828D01*
X73871736Y-139246747D01*
X73941666Y-139241666D01*
X73946734Y-139153290D01*
X73951802Y-139064913D01*
X74026962Y-139069956D01*
X74102121Y-139075000D01*
X74102121Y-139575000D01*
X74026918Y-139580044D01*
X73951715Y-139585089D01*
X73946691Y-139488378D01*
X73941666Y-139391666D01*
X73800000Y-139381416D01*
X73800000Y-139583333D01*
X73633333Y-139583333D01*
X73633333Y-139064840D01*
X73712500Y-139069920D01*
G37*
G36*
X73794206Y-141951322D02*
G01*
X73825401Y-141958945D01*
X73845578Y-141978351D01*
X73863467Y-142010290D01*
X73894398Y-142070580D01*
X73929970Y-142010290D01*
X73952473Y-141975774D01*
X73975033Y-141957815D01*
X74009155Y-141951022D01*
X74058653Y-141950000D01*
X74151764Y-141950000D01*
X74066144Y-142072629D01*
X73980525Y-142195258D01*
X74056929Y-142318031D01*
X74091403Y-142374828D01*
X74117791Y-142420967D01*
X74131987Y-142449158D01*
X74133333Y-142453735D01*
X74118335Y-142461104D01*
X74079979Y-142465786D01*
X74049755Y-142466666D01*
X73998072Y-142464533D01*
X73967114Y-142454253D01*
X73944355Y-142430008D01*
X73933150Y-142412500D01*
X73911689Y-142374312D01*
X73900513Y-142348594D01*
X73900062Y-142345833D01*
X73893070Y-142331777D01*
X73875884Y-142342872D01*
X73853764Y-142374736D01*
X73845023Y-142391666D01*
X73827829Y-142424122D01*
X73809065Y-142441549D01*
X73778553Y-142448617D01*
X73726114Y-142449995D01*
X73717851Y-142450000D01*
X73618497Y-142450000D01*
X73708290Y-142319648D01*
X73798082Y-142189296D01*
X73748205Y-142115481D01*
X73714131Y-142063237D01*
X73684179Y-142014295D01*
X73673735Y-141995833D01*
X73649143Y-141950000D01*
X73740840Y-141950000D01*
X73794206Y-141951322D01*
G37*
%TO.C,C4*%
X107940580Y-118690000D02*
X107659420Y-118690000D01*
X107940580Y-119710000D02*
X107659420Y-119710000D01*
%TO.C,R5*%
X81572500Y-103987258D02*
X81572500Y-103512742D01*
X80527500Y-103987258D02*
X80527500Y-103512742D01*
%TO.C,D1*%
X125985000Y-112015000D02*
X123700000Y-112015000D01*
X123700000Y-113485000D02*
X125985000Y-113485000D01*
X125985000Y-113485000D02*
X125985000Y-112015000D01*
%TO.C,C5*%
X109740000Y-126109420D02*
X109740000Y-126390580D01*
X110760000Y-126109420D02*
X110760000Y-126390580D01*
%TO.C,C7*%
X70640580Y-135010000D02*
X70359420Y-135010000D01*
X70640580Y-133990000D02*
X70359420Y-133990000D01*
%TO.C,R3*%
X112272500Y-117262742D02*
X112272500Y-117737258D01*
X111227500Y-117262742D02*
X111227500Y-117737258D01*
%TO.C,J1*%
X122340000Y-125510000D02*
X122340000Y-125090000D01*
X122110000Y-123510000D02*
X121660000Y-123510000D01*
X122340000Y-117990000D02*
X122340000Y-118410000D01*
X126690000Y-125510000D02*
X126290000Y-125510000D01*
X124320000Y-125510000D02*
X122340000Y-125510000D01*
X121660000Y-123060000D02*
X121660000Y-123510000D01*
X126290000Y-117990000D02*
X126690000Y-117990000D01*
X124320000Y-117990000D02*
X122340000Y-117990000D01*
%TO.C,C6*%
X76140580Y-135490000D02*
X75859420Y-135490000D01*
X76140580Y-136510000D02*
X75859420Y-136510000D01*
%TO.C,J3*%
X75640000Y-99390000D02*
X75640000Y-99936529D01*
X71895000Y-99390000D02*
X71895000Y-100192470D01*
X76400000Y-99390000D02*
X77160000Y-99390000D01*
X75640000Y-101063471D02*
X75640000Y-101610000D01*
X71895000Y-100807530D02*
X71895000Y-101610000D01*
X75640000Y-101610000D02*
X71895000Y-101610000D01*
X75640000Y-99390000D02*
X71895000Y-99390000D01*
X77160000Y-99390000D02*
X77160000Y-100500000D01*
%TO.C,J4*%
X87195000Y-110610000D02*
X87195000Y-109807530D01*
X83450000Y-108936529D02*
X83450000Y-108390000D01*
X83450000Y-110610000D02*
X83450000Y-110063471D01*
X87195000Y-109192470D02*
X87195000Y-108390000D01*
X83450000Y-108390000D02*
X87195000Y-108390000D01*
X81930000Y-110610000D02*
X81930000Y-109500000D01*
X83450000Y-110610000D02*
X87195000Y-110610000D01*
X82690000Y-110610000D02*
X81930000Y-110610000D01*
%TO.C,D2*%
X91335000Y-108115000D02*
X89865000Y-108115000D01*
X91335000Y-110400000D02*
X91335000Y-108115000D01*
X89865000Y-108115000D02*
X89865000Y-110400000D01*
%TO.C,Q2*%
X95500000Y-122560000D02*
X94850000Y-122560000D01*
X95500000Y-119440000D02*
X96150000Y-119440000D01*
X95500000Y-119440000D02*
X94850000Y-119440000D01*
X95500000Y-122560000D02*
X97175000Y-122560000D01*
%TO.C,R2*%
X100237258Y-121522500D02*
X99762742Y-121522500D01*
X100237258Y-120477500D02*
X99762742Y-120477500D01*
%TO.C,U3*%
X68755000Y-132120000D02*
X68755000Y-132500000D01*
X88080000Y-132120000D02*
X88080000Y-131120000D01*
X87300000Y-132120000D02*
X88080000Y-132120000D01*
X62335000Y-132120000D02*
X68755000Y-132120000D01*
X62335000Y-113880000D02*
X68755000Y-113880000D01*
X62335000Y-132120000D02*
X62335000Y-113880000D01*
X88080000Y-113880000D02*
X88080000Y-114880000D01*
X87300000Y-113880000D02*
X88080000Y-113880000D01*
%TO.C,R1*%
X100412258Y-124522500D02*
X99937742Y-124522500D01*
X100412258Y-123477500D02*
X99937742Y-123477500D01*
%TD*%
M02*
