%TF.GenerationSoftware,KiCad,Pcbnew,(6.0.2)*%
%TF.CreationDate,2022-04-19T16:18:31-05:00*%
%TF.ProjectId,Tlapixki-HelloWorld,546c6170-6978-46b6-992d-48656c6c6f57,rev?*%
%TF.SameCoordinates,Original*%
%TF.FileFunction,Legend,Bot*%
%TF.FilePolarity,Positive*%
%FSLAX46Y46*%
G04 Gerber Fmt 4.6, Leading zero omitted, Abs format (unit mm)*
G04 Created by KiCad (PCBNEW (6.0.2)) date 2022-04-19 16:18:31*
%MOMM*%
%LPD*%
G01*
G04 APERTURE LIST*
%ADD10C,0.300000*%
G04 APERTURE END LIST*
D10*
X90928571Y-135848571D02*
X90928571Y-134348571D01*
X90928571Y-135062857D02*
X90071428Y-135062857D01*
X90071428Y-135848571D02*
X90071428Y-134348571D01*
X88714285Y-134848571D02*
X88714285Y-135848571D01*
X89357142Y-134848571D02*
X89357142Y-135634285D01*
X89285714Y-135777142D01*
X89142857Y-135848571D01*
X88928571Y-135848571D01*
X88785714Y-135777142D01*
X88714285Y-135705714D01*
X87357142Y-134848571D02*
X87357142Y-136062857D01*
X87428571Y-136205714D01*
X87500000Y-136277142D01*
X87642857Y-136348571D01*
X87857142Y-136348571D01*
X88000000Y-136277142D01*
X87357142Y-135777142D02*
X87500000Y-135848571D01*
X87785714Y-135848571D01*
X87928571Y-135777142D01*
X88000000Y-135705714D01*
X88071428Y-135562857D01*
X88071428Y-135134285D01*
X88000000Y-134991428D01*
X87928571Y-134920000D01*
X87785714Y-134848571D01*
X87500000Y-134848571D01*
X87357142Y-134920000D01*
X86428571Y-135848571D02*
X86571428Y-135777142D01*
X86642857Y-135705714D01*
X86714285Y-135562857D01*
X86714285Y-135134285D01*
X86642857Y-134991428D01*
X86571428Y-134920000D01*
X86428571Y-134848571D01*
X86214285Y-134848571D01*
X86071428Y-134920000D01*
X86000000Y-134991428D01*
X85928571Y-135134285D01*
X85928571Y-135562857D01*
X86000000Y-135705714D01*
X86071428Y-135777142D01*
X86214285Y-135848571D01*
X86428571Y-135848571D01*
X85285714Y-134848571D02*
X85285714Y-135848571D01*
X85285714Y-134991428D02*
X85214285Y-134920000D01*
X85071428Y-134848571D01*
X84857142Y-134848571D01*
X84714285Y-134920000D01*
X84642857Y-135062857D01*
X84642857Y-135848571D01*
X83285714Y-135848571D02*
X83285714Y-134348571D01*
X83285714Y-135777142D02*
X83428571Y-135848571D01*
X83714285Y-135848571D01*
X83857142Y-135777142D01*
X83928571Y-135705714D01*
X84000000Y-135562857D01*
X84000000Y-135134285D01*
X83928571Y-134991428D01*
X83857142Y-134920000D01*
X83714285Y-134848571D01*
X83428571Y-134848571D01*
X83285714Y-134920000D01*
X82357142Y-135848571D02*
X82500000Y-135777142D01*
X82571428Y-135705714D01*
X82642857Y-135562857D01*
X82642857Y-135134285D01*
X82571428Y-134991428D01*
X82500000Y-134920000D01*
X82357142Y-134848571D01*
X82142857Y-134848571D01*
X82000000Y-134920000D01*
X81928571Y-134991428D01*
X81857142Y-135134285D01*
X81857142Y-135562857D01*
X81928571Y-135705714D01*
X82000000Y-135777142D01*
X82142857Y-135848571D01*
X82357142Y-135848571D01*
X81214285Y-134848571D02*
X81214285Y-135848571D01*
X81214285Y-134991428D02*
X81142857Y-134920000D01*
X81000000Y-134848571D01*
X80785714Y-134848571D01*
X80642857Y-134920000D01*
X80571428Y-135062857D01*
X80571428Y-135848571D01*
X89535714Y-138263571D02*
X89535714Y-136763571D01*
X89178571Y-136763571D01*
X88964285Y-136835000D01*
X88821428Y-136977857D01*
X88750000Y-137120714D01*
X88678571Y-137406428D01*
X88678571Y-137620714D01*
X88750000Y-137906428D01*
X88821428Y-138049285D01*
X88964285Y-138192142D01*
X89178571Y-138263571D01*
X89535714Y-138263571D01*
X87392857Y-138263571D02*
X87392857Y-137477857D01*
X87464285Y-137335000D01*
X87607142Y-137263571D01*
X87892857Y-137263571D01*
X88035714Y-137335000D01*
X87392857Y-138192142D02*
X87535714Y-138263571D01*
X87892857Y-138263571D01*
X88035714Y-138192142D01*
X88107142Y-138049285D01*
X88107142Y-137906428D01*
X88035714Y-137763571D01*
X87892857Y-137692142D01*
X87535714Y-137692142D01*
X87392857Y-137620714D01*
X86678571Y-138263571D02*
X86678571Y-137263571D01*
X86678571Y-137406428D02*
X86607142Y-137335000D01*
X86464285Y-137263571D01*
X86250000Y-137263571D01*
X86107142Y-137335000D01*
X86035714Y-137477857D01*
X86035714Y-138263571D01*
X86035714Y-137477857D02*
X85964285Y-137335000D01*
X85821428Y-137263571D01*
X85607142Y-137263571D01*
X85464285Y-137335000D01*
X85392857Y-137477857D01*
X85392857Y-138263571D01*
X84678571Y-138263571D02*
X84678571Y-137263571D01*
X84678571Y-136763571D02*
X84750000Y-136835000D01*
X84678571Y-136906428D01*
X84607142Y-136835000D01*
X84678571Y-136763571D01*
X84678571Y-136906428D01*
X83321428Y-138263571D02*
X83321428Y-137477857D01*
X83392857Y-137335000D01*
X83535714Y-137263571D01*
X83821428Y-137263571D01*
X83964285Y-137335000D01*
X83321428Y-138192142D02*
X83464285Y-138263571D01*
X83821428Y-138263571D01*
X83964285Y-138192142D01*
X84035714Y-138049285D01*
X84035714Y-137906428D01*
X83964285Y-137763571D01*
X83821428Y-137692142D01*
X83464285Y-137692142D01*
X83321428Y-137620714D01*
X81964285Y-137263571D02*
X81964285Y-138263571D01*
X82607142Y-137263571D02*
X82607142Y-138049285D01*
X82535714Y-138192142D01*
X82392857Y-138263571D01*
X82178571Y-138263571D01*
X82035714Y-138192142D01*
X81964285Y-138120714D01*
X87285714Y-140607142D02*
X87071428Y-140678571D01*
X86714285Y-140678571D01*
X86571428Y-140607142D01*
X86500000Y-140535714D01*
X86428571Y-140392857D01*
X86428571Y-140250000D01*
X86500000Y-140107142D01*
X86571428Y-140035714D01*
X86714285Y-139964285D01*
X87000000Y-139892857D01*
X87142857Y-139821428D01*
X87214285Y-139750000D01*
X87285714Y-139607142D01*
X87285714Y-139464285D01*
X87214285Y-139321428D01*
X87142857Y-139250000D01*
X87000000Y-139178571D01*
X86642857Y-139178571D01*
X86428571Y-139250000D01*
X85500000Y-139178571D02*
X85357142Y-139178571D01*
X85214285Y-139250000D01*
X85142857Y-139321428D01*
X85071428Y-139464285D01*
X85000000Y-139750000D01*
X85000000Y-140107142D01*
X85071428Y-140392857D01*
X85142857Y-140535714D01*
X85214285Y-140607142D01*
X85357142Y-140678571D01*
X85500000Y-140678571D01*
X85642857Y-140607142D01*
X85714285Y-140535714D01*
X85785714Y-140392857D01*
X85857142Y-140107142D01*
X85857142Y-139750000D01*
X85785714Y-139464285D01*
X85714285Y-139321428D01*
X85642857Y-139250000D01*
X85500000Y-139178571D01*
X84142857Y-140678571D02*
X84285714Y-140607142D01*
X84357142Y-140464285D01*
X84357142Y-139178571D01*
X93428571Y-145508571D02*
X93428571Y-144008571D01*
X93428571Y-144722857D02*
X92571428Y-144722857D01*
X92571428Y-145508571D02*
X92571428Y-144008571D01*
X91928571Y-145080000D02*
X91214285Y-145080000D01*
X92071428Y-145508571D02*
X91571428Y-144008571D01*
X91071428Y-145508571D01*
X89714285Y-145508571D02*
X90214285Y-144794285D01*
X90571428Y-145508571D02*
X90571428Y-144008571D01*
X90000000Y-144008571D01*
X89857142Y-144080000D01*
X89785714Y-144151428D01*
X89714285Y-144294285D01*
X89714285Y-144508571D01*
X89785714Y-144651428D01*
X89857142Y-144722857D01*
X90000000Y-144794285D01*
X90571428Y-144794285D01*
X89142857Y-145080000D02*
X88428571Y-145080000D01*
X89285714Y-145508571D02*
X88785714Y-144008571D01*
X88285714Y-145508571D01*
X86714285Y-145437142D02*
X86500000Y-145508571D01*
X86142857Y-145508571D01*
X86000000Y-145437142D01*
X85928571Y-145365714D01*
X85857142Y-145222857D01*
X85857142Y-145080000D01*
X85928571Y-144937142D01*
X86000000Y-144865714D01*
X86142857Y-144794285D01*
X86428571Y-144722857D01*
X86571428Y-144651428D01*
X86642857Y-144580000D01*
X86714285Y-144437142D01*
X86714285Y-144294285D01*
X86642857Y-144151428D01*
X86571428Y-144080000D01*
X86428571Y-144008571D01*
X86071428Y-144008571D01*
X85857142Y-144080000D01*
X84642857Y-145437142D02*
X84785714Y-145508571D01*
X85071428Y-145508571D01*
X85214285Y-145437142D01*
X85285714Y-145294285D01*
X85285714Y-144722857D01*
X85214285Y-144580000D01*
X85071428Y-144508571D01*
X84785714Y-144508571D01*
X84642857Y-144580000D01*
X84571428Y-144722857D01*
X84571428Y-144865714D01*
X85285714Y-145008571D01*
X83928571Y-145508571D02*
X83928571Y-144508571D01*
X83928571Y-144794285D02*
X83857142Y-144651428D01*
X83785714Y-144580000D01*
X83642857Y-144508571D01*
X83500000Y-144508571D01*
X83142857Y-144508571D02*
X82785714Y-145508571D01*
X82428571Y-144508571D01*
X81857142Y-145508571D02*
X81857142Y-144508571D01*
X81857142Y-144008571D02*
X81928571Y-144080000D01*
X81857142Y-144151428D01*
X81785714Y-144080000D01*
X81857142Y-144008571D01*
X81857142Y-144151428D01*
X80500000Y-145437142D02*
X80642857Y-145508571D01*
X80928571Y-145508571D01*
X81071428Y-145437142D01*
X81142857Y-145365714D01*
X81214285Y-145222857D01*
X81214285Y-144794285D01*
X81142857Y-144651428D01*
X81071428Y-144580000D01*
X80928571Y-144508571D01*
X80642857Y-144508571D01*
X80500000Y-144580000D01*
X79285714Y-145437142D02*
X79428571Y-145508571D01*
X79714285Y-145508571D01*
X79857142Y-145437142D01*
X79928571Y-145294285D01*
X79928571Y-144722857D01*
X79857142Y-144580000D01*
X79714285Y-144508571D01*
X79428571Y-144508571D01*
X79285714Y-144580000D01*
X79214285Y-144722857D01*
X79214285Y-144865714D01*
X79928571Y-145008571D01*
X78642857Y-145437142D02*
X78500000Y-145508571D01*
X78214285Y-145508571D01*
X78071428Y-145437142D01*
X78000000Y-145294285D01*
X78000000Y-145222857D01*
X78071428Y-145080000D01*
X78214285Y-145008571D01*
X78428571Y-145008571D01*
X78571428Y-144937142D01*
X78642857Y-144794285D01*
X78642857Y-144722857D01*
X78571428Y-144580000D01*
X78428571Y-144508571D01*
X78214285Y-144508571D01*
X78071428Y-144580000D01*
M02*
