M48
; DRILL file {KiCad (6.0.2)} date Fri Apr  8 16:17:11 2022
; FORMAT={-:-/ absolute / inch / decimal}
; #@! TF.CreationDate,2022-04-08T16:17:11-05:00
; #@! TF.GenerationSoftware,Kicad,Pcbnew,(6.0.2)
; #@! TF.FileFunction,MixedPlating,1,2
FMAT,2
INCH
; #@! TA.AperFunction,Plated,PTH,ViaDrill
T1C0.0157
; #@! TA.AperFunction,Plated,PTH,ComponentDrill
T2C0.0217
; #@! TA.AperFunction,Plated,PTH,ComponentDrill
T3C0.0256
; #@! TA.AperFunction,Plated,PTH,ComponentDrill
T4C0.0335
; #@! TA.AperFunction,NonPlated,NPTH,ComponentDrill
T5C0.0315
; #@! TA.AperFunction,NonPlated,NPTH,ComponentDrill
T6C0.1260
%
G90
G05
T1
X2.7441Y-5.3484
X2.7537Y-5.2439
X2.7559Y-4.439
X2.7854Y-3.9567
X2.8031Y-4.3937
X2.8031Y-5.1181
X2.9094Y-5.3543
X2.9232Y-4.7933
X2.9232Y-4.8327
X2.9232Y-4.872
X2.9232Y-4.9114
X2.9232Y-4.9508
X2.9528Y-4.5965
X2.9724Y-4.1358
X2.9724Y-4.189
X3.0433Y-4.1378
X3.0433Y-4.189
X3.1476Y-4.0492
X3.1555Y-4.4252
X3.1791Y-4.7933
X3.1791Y-4.8327
X3.1791Y-4.872
X3.1791Y-4.9114
X3.1791Y-4.9508
X3.3031Y-4.439
X3.3051Y-4.3799
X3.3583Y-4.0965
X3.4685Y-4.311
X3.4705Y-3.9567
X3.4921Y-4.2126
X3.5059Y-5.0827
X3.5217Y-4.4705
X3.6043Y-4.4705
X3.6654Y-4.4055
X3.8681Y-4.4035
X3.9528Y-4.9606
X3.9528Y-5.0236
X4.0807Y-4.7028
X4.0846Y-4.311
X4.0846Y-4.3563
X4.1693Y-4.6929
X4.2106Y-4.5878
X4.2126Y-5.0315
X4.25Y-4.0157
X4.2579Y-5.0295
X4.3209Y-4.8917
X4.3312Y-4.8525
X4.3406Y-4.5866
X4.3898Y-4.9409
X4.3898Y-5.0
X4.4291Y-4.7896
X4.4783Y-4.6457
X4.6043Y-4.5079
X4.7343Y-4.5768
X4.8327Y-4.8425
X4.8425Y-4.7441
T3
X2.8579Y-3.9567
X2.9079Y-3.9567
X2.9579Y-3.9567
X3.0079Y-3.9567
X3.1555Y-3.9567
X3.2055Y-3.9567
X3.2555Y-3.9567
X3.2555Y-4.311
X3.3055Y-3.9567
X3.3055Y-4.311
X3.3555Y-3.9567
X3.3555Y-4.311
X3.4055Y-3.9567
X3.4055Y-4.311
T5
X4.811Y-4.6949
X4.811Y-4.8917
T6
X2.4016Y-3.9862
X2.4016Y-5.6496
X4.8425Y-3.9862
X4.8425Y-5.6496
T2
G00X4.9065Y-4.6407
M15
G01X4.9321Y-4.6407
M16
G05
G00X4.9065Y-4.9459
M15
G01X4.9321Y-4.9459
M16
G05
T4
G00X4.7589Y-4.6467
M15
G01X4.7805Y-4.6467
M16
G05
G00X4.7589Y-4.94
M15
G01X4.7805Y-4.94
M16
G05
T0
M30
