%TF.GenerationSoftware,KiCad,Pcbnew,(6.0.2)*%
%TF.CreationDate,2022-04-08T16:17:17-05:00*%
%TF.ProjectId,Tlapixki-HelloWorld,546c6170-6978-46b6-992d-48656c6c6f57,rev?*%
%TF.SameCoordinates,Original*%
%TF.FileFunction,Paste,Top*%
%TF.FilePolarity,Positive*%
%FSLAX46Y46*%
G04 Gerber Fmt 4.6, Leading zero omitted, Abs format (unit mm)*
G04 Created by KiCad (PCBNEW (6.0.2)) date 2022-04-08 16:17:17*
%MOMM*%
%LPD*%
G01*
G04 APERTURE LIST*
G04 Aperture macros list*
%AMRoundRect*
0 Rectangle with rounded corners*
0 $1 Rounding radius*
0 $2 $3 $4 $5 $6 $7 $8 $9 X,Y pos of 4 corners*
0 Add a 4 corners polygon primitive as box body*
4,1,4,$2,$3,$4,$5,$6,$7,$8,$9,$2,$3,0*
0 Add four circle primitives for the rounded corners*
1,1,$1+$1,$2,$3*
1,1,$1+$1,$4,$5*
1,1,$1+$1,$6,$7*
1,1,$1+$1,$8,$9*
0 Add four rect primitives between the rounded corners*
20,1,$1+$1,$2,$3,$4,$5,0*
20,1,$1+$1,$4,$5,$6,$7,0*
20,1,$1+$1,$6,$7,$8,$9,0*
20,1,$1+$1,$8,$9,$2,$3,0*%
G04 Aperture macros list end*
%ADD10RoundRect,0.225000X0.225000X0.250000X-0.225000X0.250000X-0.225000X-0.250000X0.225000X-0.250000X0*%
%ADD11RoundRect,0.200000X-0.275000X0.200000X-0.275000X-0.200000X0.275000X-0.200000X0.275000X0.200000X0*%
%ADD12RoundRect,0.200000X0.200000X0.275000X-0.200000X0.275000X-0.200000X-0.275000X0.200000X-0.275000X0*%
%ADD13RoundRect,0.200000X-0.200000X-0.275000X0.200000X-0.275000X0.200000X0.275000X-0.200000X0.275000X0*%
%ADD14RoundRect,0.150000X0.587500X0.150000X-0.587500X0.150000X-0.587500X-0.150000X0.587500X-0.150000X0*%
%ADD15R,1.500000X2.000000*%
%ADD16R,3.800000X2.000000*%
%ADD17RoundRect,0.200000X0.275000X-0.200000X0.275000X0.200000X-0.275000X0.200000X-0.275000X-0.200000X0*%
%ADD18RoundRect,0.218750X0.218750X0.256250X-0.218750X0.256250X-0.218750X-0.256250X0.218750X-0.256250X0*%
%ADD19RoundRect,0.225000X0.225000X0.225000X-0.225000X0.225000X-0.225000X-0.225000X0.225000X-0.225000X0*%
%ADD20RoundRect,0.062500X0.337500X0.062500X-0.337500X0.062500X-0.337500X-0.062500X0.337500X-0.062500X0*%
%ADD21RoundRect,0.062500X0.062500X0.337500X-0.062500X0.337500X-0.062500X-0.337500X0.062500X-0.337500X0*%
%ADD22RoundRect,0.225000X-0.250000X0.225000X-0.250000X-0.225000X0.250000X-0.225000X0.250000X0.225000X0*%
%ADD23R,1.300000X0.450000*%
%ADD24RoundRect,0.218750X-0.256250X0.218750X-0.256250X-0.218750X0.256250X-0.218750X0.256250X0.218750X0*%
%ADD25R,0.900000X2.000000*%
%ADD26R,2.000000X0.900000*%
%ADD27R,5.000000X5.000000*%
%ADD28R,1.200000X1.750000*%
G04 APERTURE END LIST*
D10*
%TO.C,C3*%
X108775000Y-112500000D03*
X107225000Y-112500000D03*
%TD*%
D11*
%TO.C,R9*%
X93100000Y-108775000D03*
X93100000Y-110425000D03*
%TD*%
D12*
%TO.C,R8*%
X78325000Y-109500000D03*
X76675000Y-109500000D03*
%TD*%
D11*
%TO.C,R4*%
X121500000Y-114425000D03*
X121500000Y-116075000D03*
%TD*%
D13*
%TO.C,R6*%
X75175000Y-134500000D03*
X76825000Y-134500000D03*
%TD*%
D10*
%TO.C,C2*%
X108550000Y-117700000D03*
X107000000Y-117700000D03*
%TD*%
D14*
%TO.C,Q1*%
X96437500Y-125450000D03*
X96437500Y-123550000D03*
X94562500Y-124500000D03*
%TD*%
D15*
%TO.C,U1*%
X105700000Y-110150000D03*
X108000000Y-110150000D03*
D16*
X108000000Y-103850000D03*
D15*
X110300000Y-110150000D03*
%TD*%
D10*
%TO.C,C1*%
X108775000Y-114500000D03*
X107225000Y-114500000D03*
%TD*%
D13*
%TO.C,R7*%
X71175000Y-109500000D03*
X72825000Y-109500000D03*
%TD*%
D10*
%TO.C,C4*%
X108575000Y-119200000D03*
X107025000Y-119200000D03*
%TD*%
D17*
%TO.C,R5*%
X81050000Y-104575000D03*
X81050000Y-102925000D03*
%TD*%
D18*
%TO.C,D1*%
X125287500Y-112750000D03*
X123712500Y-112750000D03*
%TD*%
D19*
%TO.C,U2*%
X106120000Y-123370000D03*
X106120000Y-122250000D03*
X107240000Y-124490000D03*
X105000000Y-124490000D03*
X107240000Y-123370000D03*
X105000000Y-123370000D03*
X105000000Y-122250000D03*
X106120000Y-124490000D03*
X107240000Y-122250000D03*
D20*
X108570000Y-124870000D03*
X108570000Y-124370000D03*
X108570000Y-123870000D03*
X108570000Y-123370000D03*
X108570000Y-122870000D03*
X108570000Y-122370000D03*
X108570000Y-121870000D03*
D21*
X107620000Y-120920000D03*
X107120000Y-120920000D03*
X106620000Y-120920000D03*
X106120000Y-120920000D03*
X105620000Y-120920000D03*
X105120000Y-120920000D03*
X104620000Y-120920000D03*
D20*
X103670000Y-121870000D03*
X103670000Y-122370000D03*
X103670000Y-122870000D03*
X103670000Y-123370000D03*
X103670000Y-123870000D03*
X103670000Y-124370000D03*
X103670000Y-124870000D03*
D21*
X104620000Y-125820000D03*
X105120000Y-125820000D03*
X105620000Y-125820000D03*
X106120000Y-125820000D03*
X106620000Y-125820000D03*
X107120000Y-125820000D03*
X107620000Y-125820000D03*
%TD*%
D22*
%TO.C,C5*%
X110250000Y-125475000D03*
X110250000Y-127025000D03*
%TD*%
D10*
%TO.C,C7*%
X71275000Y-134500000D03*
X69725000Y-134500000D03*
%TD*%
D11*
%TO.C,R3*%
X111750000Y-116675000D03*
X111750000Y-118325000D03*
%TD*%
D23*
%TO.C,J1*%
X121100000Y-123050000D03*
X121100000Y-122400000D03*
X121100000Y-121750000D03*
X121100000Y-121100000D03*
X121100000Y-120450000D03*
%TD*%
D10*
%TO.C,C6*%
X76775000Y-136000000D03*
X75225000Y-136000000D03*
%TD*%
D24*
%TO.C,D2*%
X90600000Y-108812500D03*
X90600000Y-110387500D03*
%TD*%
D14*
%TO.C,Q2*%
X96437500Y-121950000D03*
X96437500Y-120050000D03*
X94562500Y-121000000D03*
%TD*%
D12*
%TO.C,R2*%
X100825000Y-121000000D03*
X99175000Y-121000000D03*
%TD*%
D25*
%TO.C,U3*%
X69945000Y-131500000D03*
X71215000Y-131500000D03*
X72485000Y-131500000D03*
X73755000Y-131500000D03*
X75025000Y-131500000D03*
X76295000Y-131500000D03*
X77565000Y-131500000D03*
X78835000Y-131500000D03*
X80105000Y-131500000D03*
X81375000Y-131500000D03*
X82645000Y-131500000D03*
X83915000Y-131500000D03*
X85185000Y-131500000D03*
X86455000Y-131500000D03*
D26*
X87455000Y-128715000D03*
X87455000Y-127445000D03*
X87455000Y-126175000D03*
X87455000Y-124905000D03*
X87455000Y-123635000D03*
X87455000Y-122365000D03*
X87455000Y-121095000D03*
X87455000Y-119825000D03*
X87455000Y-118555000D03*
X87455000Y-117285000D03*
D25*
X86455000Y-114500000D03*
X85185000Y-114500000D03*
X83915000Y-114500000D03*
X82645000Y-114500000D03*
X81375000Y-114500000D03*
X80105000Y-114500000D03*
X78835000Y-114500000D03*
X77565000Y-114500000D03*
X76295000Y-114500000D03*
X75025000Y-114500000D03*
X73755000Y-114500000D03*
X72485000Y-114500000D03*
X71215000Y-114500000D03*
X69945000Y-114500000D03*
D27*
X77445000Y-124000000D03*
%TD*%
D28*
%TO.C,S1*%
X98250000Y-110125000D03*
X98250000Y-103875000D03*
%TD*%
D12*
%TO.C,R1*%
X101000000Y-124000000D03*
X99350000Y-124000000D03*
%TD*%
M02*
